<svg width="13" height="13" viewBox="0 0 13 13" fill="none" xmlns="http://www.w3.org/2000/svg">
<path d="M11.52 0C11.9019 0 12.2682 0.151714 12.5382 0.421766C12.8083 0.691819 12.96 1.05809 12.96 1.44V11.52C12.96 11.9019 12.8083 12.2682 12.5382 12.5382C12.2682 12.8083 11.9019 12.96 11.52 12.96H1.44C1.05809 12.96 0.691819 12.8083 0.421766 12.5382C0.151714 12.2682 0 11.9019 0 11.52V1.44C0 1.05809 0.151714 0.691819 0.421766 0.421766C0.691819 0.151714 1.05809 0 1.44 0H11.52ZM11.16 11.16V7.344C11.16 6.72148 10.9127 6.12446 10.4725 5.68428C10.0323 5.24409 9.43532 4.9968 8.8128 4.9968C8.2008 4.9968 7.488 5.3712 7.1424 5.9328V5.1336H5.1336V11.16H7.1424V7.6104C7.1424 7.056 7.5888 6.6024 8.1432 6.6024C8.41054 6.6024 8.66693 6.7086 8.85596 6.89764C9.045 7.08667 9.1512 7.34306 9.1512 7.6104V11.16H11.16ZM2.7936 4.0032C3.11441 4.0032 3.42207 3.87576 3.64892 3.64892C3.87576 3.42207 4.0032 3.11441 4.0032 2.7936C4.0032 2.124 3.4632 1.5768 2.7936 1.5768C2.47088 1.5768 2.16139 1.705 1.93319 1.93319C1.705 2.16139 1.5768 2.47088 1.5768 2.7936C1.5768 3.4632 2.124 4.0032 2.7936 4.0032ZM3.7944 11.16V5.1336H1.8V11.16H3.7944Z" fill="white"/>
</svg>
