<svg width="1362" height="153" viewBox="0 0 1362 153" fill="none" xmlns="http://www.w3.org/2000/svg">
<path d="M64.3587 177.339C55.1797 177.339 46.6562 176.393 38.8408 174.529C31.0254 172.637 24.2067 169.966 18.4108 166.432C12.6148 162.927 8.07757 158.559 4.85176 153.356C1.62595 148.125 -1.83914e-06 142.116 -1.83958e-06 135.271C-1.83961e-06 134.576 -1.83968e-06 133.908 -1.83971e-06 133.213C-1.83974e-06 132.517 0.0787469 131.933 0.236103 131.404L35.3266 131.404C35.3266 131.738 35.3266 132.127 35.3266 132.572C35.3266 132.99 35.3266 133.38 35.3266 133.741C35.4839 137.859 36.9263 141.198 39.6801 143.757C42.4076 146.317 46.0531 148.153 50.5639 149.266C55.0749 150.379 59.848 150.935 64.831 150.935C69.4992 150.935 74.0624 150.601 78.4946 149.906C82.9268 149.21 86.6509 147.847 89.6145 145.788C92.6043 143.729 94.0988 141.003 94.0988 137.581C94.0988 133.296 92.3157 130.152 88.7752 128.094C85.2346 126.035 80.3568 124.421 74.1412 123.225C67.9256 122.028 60.9493 120.665 53.2127 119.106C46.761 117.91 40.598 116.38 34.697 114.489C28.8224 112.596 23.5248 110.176 18.8566 107.171C14.1883 104.166 10.4643 100.326 7.73672 95.6247C4.98299 90.9229 3.61921 85.0527 3.61921 78.0411C3.61921 70.6964 5.14032 64.3521 8.20877 59.0381C11.2772 53.7242 15.6307 49.3836 21.2693 45.9623C26.9079 42.54 33.5694 40.0081 41.2275 38.3945C48.8855 36.7809 57.1466 35.9456 66.011 35.9456C74.246 35.9456 81.9828 36.7529 89.2474 38.3945C96.5124 40.0081 102.806 42.428 108.104 45.5722C113.428 48.7443 117.651 52.7228 120.797 57.5085C123.944 62.2933 125.518 67.6913 125.518 73.6726C125.518 74.7019 125.518 75.6483 125.518 76.4826C125.518 77.3459 125.44 78.0132 125.282 78.5423L90.2178 78.5423L90.2178 76.7337C90.2178 73.4785 89.1163 70.8355 86.9395 68.7767C84.7627 66.717 81.7729 65.1314 77.9963 64.0189C74.1936 62.9056 69.8925 62.3494 65.0406 62.3494C62.6279 62.3494 59.8742 62.5164 56.8058 62.8505C53.7373 63.1837 50.7999 63.7959 47.9675 64.6582C45.135 65.5215 42.8797 66.717 41.2012 68.2475C39.5228 69.7781 38.6572 71.7529 38.6572 74.1457C38.6572 77.2339 40.1783 79.6548 43.2468 81.4634C46.3152 83.2721 50.3804 84.6626 55.4682 85.692C60.5561 86.7214 66.0636 87.8348 72.0431 89.0312C78.8094 90.5608 85.602 92.1473 92.3683 93.788C99.1349 95.4025 105.35 97.6004 110.989 100.326C116.628 103.053 121.06 107.004 124.285 112.124C127.511 117.243 129.111 124.115 129.111 132.656C129.111 140.864 127.537 147.847 124.39 153.578C121.243 159.31 116.784 163.929 110.962 167.434C105.167 170.94 98.2958 173.472 90.4013 175.002C82.586 176.56 73.8788 177.339 64.3587 177.339Z" fill="white"/>
<path d="M201.525 177.339C186.366 177.339 174.643 173.221 166.329 165.013C158.016 156.806 153.872 143.896 153.872 126.257L153.872 39.2565L189.199 39.2565L189.199 120.08C189.199 125.06 189.749 129.206 190.904 132.517C192.031 135.855 193.736 138.555 195.991 140.613C198.247 142.672 200.948 144.175 204.095 145.093C207.242 146.011 210.835 146.512 214.848 146.512C220.644 146.512 225.942 145.148 230.689 142.394C235.435 139.667 239.265 135.855 242.175 130.986C245.087 126.118 246.529 120.582 246.529 114.432L246.529 39.2285L282.092 39.2285L282.092 174.223L253.059 174.223L250.41 153.69L248.706 153.69C244.825 159.004 240.471 163.4 235.645 166.906C230.793 170.411 225.443 173.026 219.569 174.724C213.668 176.476 207.662 177.339 201.525 177.339Z" fill="white"/>
<path d="M314.008 221.213L314.008 39.2555L342.804 39.2555L345.952 58.7588L347.656 58.7588C352.665 50.5517 358.986 44.7366 366.644 41.3143C374.302 37.892 382.642 36.1954 391.689 36.1954C403.465 36.1954 413.668 38.6713 422.296 43.6512C430.924 48.604 437.586 56.3108 442.253 66.7437C446.922 77.1775 449.256 90.5325 449.256 106.78C449.256 122.694 446.869 135.882 442.123 146.316C437.376 156.749 430.793 164.539 422.401 169.659C414.008 174.778 404.173 177.365 392.896 177.365C387.257 177.365 381.803 176.67 376.557 175.307C371.312 173.943 366.513 171.829 362.159 169.019C357.805 166.209 354.081 162.731 351.039 158.613L349.597 158.613L349.597 221.241L314.008 221.241L314.008 221.213ZM381.514 146.789C388.779 146.789 394.732 145.37 399.426 142.56C404.095 139.75 407.557 135.465 409.839 129.734C412.094 124.002 413.221 117.213 413.221 109.34L413.221 104.221C413.221 96.0135 412.094 89.085 409.839 83.4378C407.583 77.7897 404.121 73.5602 399.426 70.7231C394.732 67.9121 388.7 66.4936 381.278 66.4936C374.354 66.4936 368.48 68.0241 363.733 71.1123C358.986 74.2004 355.341 78.5961 352.849 84.3272C350.331 90.0593 349.098 96.8758 349.098 104.722L349.098 108.311C349.098 114.125 349.833 119.467 351.275 124.336C352.718 129.205 354.79 133.322 357.438 136.661C360.088 140 363.392 142.532 367.352 144.229C371.312 145.954 376.033 146.789 381.514 146.789Z" fill="white"/>
<path d="M541.881 177.339C526.565 177.339 513.531 174.807 502.805 169.771C492.078 164.735 483.896 156.973 478.256 146.54C472.618 136.106 469.786 122.834 469.786 106.753C469.786 90.6725 472.592 77.4007 478.256 66.9678C483.896 56.5339 491.999 48.8 502.568 43.7362C513.138 38.7003 525.91 36.1684 540.911 36.1684C555.598 36.1684 568.055 38.6443 578.283 43.6251C588.511 48.577 596.274 56.1448 601.493 66.3275C606.738 76.5112 609.361 89.281 609.361 104.695L609.361 115.212L506.318 115.212C506.634 123.085 508.181 129.624 510.908 134.854C513.636 140.085 517.648 143.896 522.894 146.289C528.139 148.682 534.616 149.878 542.379 149.878C546.235 149.878 549.959 149.405 553.499 148.459C557.04 147.513 560.266 146.067 563.177 144.091C566.088 142.116 568.5 139.695 570.441 136.774C572.382 133.88 573.431 130.541 573.589 126.758L609.152 126.758C609.152 134.632 607.499 141.726 604.195 148.07C600.89 154.413 596.326 159.699 590.531 163.984C584.735 168.269 577.706 171.552 569.471 173.861C561.236 176.17 552.057 177.339 541.881 177.339ZM506.817 91.869L572.12 91.869C572.12 87.0832 571.36 82.8817 569.812 79.2933C568.264 75.704 566.141 72.6989 563.413 70.306C560.659 67.9141 557.433 66.1605 553.735 65.0481C550.038 63.9347 545.92 63.3784 541.409 63.3784C534.486 63.3784 528.558 64.4358 523.628 66.5786C518.698 68.7204 514.868 71.9196 512.141 76.2052C509.387 80.5168 507.604 85.7197 506.817 91.869Z" fill="white"/>
<path d="M635.508 174.251L635.508 39.2569L664.541 39.2569L667.451 61.32L669.156 61.32C670.756 56.7013 673.117 52.4168 676.159 48.4943C679.228 44.5709 682.977 41.4827 687.41 39.2569C691.842 37.031 696.877 35.9177 702.543 35.9177C705.453 35.9177 708.102 36.1687 710.515 36.6969C712.928 37.1981 715.026 37.8103 716.809 38.5056L716.809 71.3637L702.778 71.3637C697.297 71.3637 692.577 72.2541 688.617 74.0627C684.656 75.8704 681.351 78.4304 678.703 81.7696C676.053 85.1078 674.113 89.0033 672.907 93.4549C671.701 97.9065 671.097 102.942 671.097 108.59L671.097 174.278L635.508 174.278L635.508 174.251Z" fill="white"/>
<path d="M781.853 177.339C772.989 177.339 765.724 175.892 760.086 172.971C754.447 170.077 750.277 165.737 747.628 160.005C744.979 154.274 743.641 147.124 743.641 138.582L743.641 67.4964L724.051 67.4964L724.051 39.257L745.084 39.257L751.851 -0.000510743L779.178 -0.000511937L779.178 39.257L807.712 39.257L807.712 67.4964L779.178 67.4964L779.178 133.185C779.178 138.304 780.175 142.199 782.194 144.87C784.213 147.513 788.042 148.849 793.681 148.849L807.712 148.849L807.712 173.221C805.614 173.917 803.044 174.557 799.975 175.141C796.907 175.725 793.76 176.254 790.534 176.671C787.335 177.116 784.449 177.339 781.853 177.339Z" fill="white"/>
<path d="M897.978 177.339C882.662 177.339 869.628 174.807 858.901 169.771C848.174 164.735 839.992 156.973 834.354 146.54C828.715 136.106 825.883 122.834 825.883 106.753C825.883 90.6725 828.715 77.4007 834.354 66.9678C839.992 56.5339 848.096 48.8 858.665 43.7362C869.234 38.7003 882.006 36.1684 897.008 36.1684C911.668 36.1684 924.152 38.6443 934.376 43.6251C944.612 48.577 952.369 56.1448 957.617 66.3275C962.866 76.5112 965.486 89.281 965.486 104.695L965.486 115.212L862.442 115.212C862.757 123.085 864.303 129.624 867.031 134.854C869.759 140.085 873.771 143.896 879.016 146.289C884.262 148.682 890.74 149.878 898.502 149.878C902.383 149.878 906.082 149.405 909.623 148.459C913.163 147.513 916.389 146.067 919.3 144.091C922.211 142.116 924.624 139.695 926.564 136.774C928.505 133.88 929.554 130.541 929.712 126.758L965.271 126.758C965.271 134.632 963.621 141.726 960.321 148.07C957.011 154.413 952.452 159.699 946.654 163.984C940.855 168.269 933.826 171.552 925.62 173.861C917.333 176.17 908.127 177.339 897.978 177.339ZM862.887 91.869L928.216 91.869C928.216 87.0832 927.457 82.8817 925.909 79.2933C924.388 75.704 922.237 72.6989 919.509 70.306C916.756 67.9141 913.531 66.1605 909.832 65.0481C906.108 63.9347 902.017 63.3784 897.506 63.3784C890.582 63.3784 884.656 64.4358 879.725 66.5786C874.794 68.7204 870.965 71.9196 868.238 76.2052C865.484 80.5168 863.7 85.7197 862.887 91.869Z" fill="white"/>
<path d="M1031.76 177.339C1026.12 177.339 1020.48 176.727 1014.81 175.53C1009.17 174.334 1004.14 172.359 999.712 169.632C995.284 166.905 991.685 163.01 988.963 157.947C986.203 152.911 984.842 146.456 984.842 138.582C984.842 128.483 987.098 120.331 991.61 114.071C996.123 107.838 1002.65 103.137 1011.2 99.9654C1019.75 96.7933 1029.87 94.7065 1041.57 93.6771C1053.26 92.6478 1066.12 92.1466 1080.15 92.1466L1080.15 84.1896C1080.15 79.5709 1079.22 75.7595 1077.37 72.7824C1075.5 69.7783 1072.62 67.4404 1068.66 65.7158C1064.7 64.0182 1059.43 63.1559 1052.82 63.1559C1047.02 63.1559 1042.06 63.7961 1037.95 65.0756C1033.83 66.356 1030.68 68.0247 1028.51 70.0834C1026.33 72.1422 1025.23 74.5351 1025.23 77.262L1025.23 80.3502L990.399 80.3502C990.24 79.3208 990.11 78.4585 990.035 77.7903C989.951 77.095 989.904 76.2607 989.904 75.2313C989.904 67.3574 992.394 60.4849 997.4 54.5867C1002.42 48.6885 1009.71 44.1538 1019.3 40.9817C1028.9 37.8104 1040.39 36.2239 1053.76 36.2239C1067.14 36.2239 1078.39 37.7544 1087.51 40.8426C1096.62 43.9307 1103.59 48.7165 1108.44 55.2269C1113.27 61.7373 1115.71 70.0284 1115.71 80.1281L1115.71 139.417C1115.71 142.505 1116.47 144.842 1118.02 146.484C1119.54 148.098 1121.46 148.932 1123.71 148.932L1133.85 148.932L1133.85 173.054C1132.07 173.917 1129.27 174.807 1125.39 175.753C1121.5 176.699 1116.99 177.172 1111.83 177.172C1105.85 177.172 1100.95 176.365 1097.06 174.724C1093.18 173.11 1090.17 170.884 1087.99 168.046C1085.82 165.208 1084.24 161.925 1083.27 158.169L1081.33 158.169C1077.95 161.925 1073.77 165.32 1068.87 168.297C1063.94 171.301 1058.38 173.555 1052.16 175.085C1045.97 176.56 1039.16 177.339 1031.76 177.339ZM1042.38 149.628C1047.05 149.628 1051.61 148.988 1056.05 147.708C1060.48 146.428 1064.47 144.62 1068.03 142.311C1071.57 140.001 1074.48 137.08 1076.74 133.574C1078.99 130.069 1080.12 126.257 1080.12 122.168L1080.12 114.739C1067.53 114.739 1056.8 115.378 1047.94 116.659C1039.08 117.938 1032.26 120.081 1027.51 123.085C1022.77 126.09 1020.38 130.236 1020.38 135.522C1020.38 138.944 1021.35 141.671 1023.29 143.73C1025.23 145.788 1027.88 147.291 1031.26 148.209C1034.64 149.155 1038.37 149.628 1042.38 149.628Z" fill="white"/>
<path d="M1150.52 174.251L1150.52 39.2569L1179.55 39.2569L1182.46 59.5394L1184.16 59.5394C1187.55 54.2254 1191.61 49.8298 1196.38 46.3244C1201.13 42.8182 1206.27 40.2592 1211.75 38.6176C1217.23 37.004 1222.87 36.1687 1228.7 36.1687C1238.53 36.1687 1246.84 38.0054 1253.61 41.6778C1260.37 45.3501 1265.54 51.3043 1269.08 59.5114L1270.79 59.5114C1274.33 54.1974 1278.5 49.8018 1283.24 46.2964C1287.99 42.7902 1293.24 40.2312 1298.98 38.5896C1304.69 36.976 1310.55 36.1417 1316.52 36.1417C1326.04 36.1417 1334.14 37.8663 1340.84 41.2606C1347.52 44.6828 1352.71 50.1639 1356.44 57.6757C1360.14 65.2155 1362 74.786 1362 86.4163L1362 174.195L1326.2 174.195L1326.2 92.8427C1326.2 88.0579 1325.68 83.9394 1324.63 80.5181C1323.58 77.0958 1322.08 74.3689 1320.14 72.3101C1318.2 70.2513 1315.74 68.8048 1312.78 67.9424C1309.78 67.0792 1306.61 66.662 1303.23 66.662C1297.91 66.662 1293.02 67.9975 1288.59 70.6405C1284.17 73.2835 1280.62 77.0678 1277.95 81.9366C1275.3 86.8054 1273.96 92.3425 1273.96 98.4908L1273.96 174.195L1238.63 174.195L1238.63 92.8427C1238.63 88.0579 1238.06 83.9394 1236.93 80.5172C1235.8 77.0958 1234.22 74.3689 1232.21 72.3101C1230.19 70.2513 1227.77 68.8048 1224.94 67.9424C1222.11 67.0792 1218.86 66.662 1215.13 66.662C1209.81 66.662 1204.93 67.9975 1200.5 70.6405C1196.07 73.2835 1192.55 77.0678 1189.98 81.9366C1187.42 86.8054 1186.1 92.3425 1186.1 98.4908L1186.1 174.195L1150.52 174.195L1150.52 174.251Z" fill="white"/>
</svg>
