<svg width="24" height="24" viewBox="0 0 24 24" fill="none" xmlns="http://www.w3.org/2000/svg">
<path d="M20.4487 19.6463L14.73 10.665L20.3287 4.50656C20.5252 4.28511 20.6264 3.99515 20.6105 3.69955C20.5946 3.40394 20.4629 3.12652 20.2438 2.92742C20.0247 2.72833 19.736 2.62361 19.4402 2.63596C19.1444 2.64832 18.8654 2.77676 18.6637 2.99344L13.4822 8.69719L9.94873 3.14625C9.84718 2.98659 9.707 2.85512 9.54117 2.76401C9.37533 2.6729 9.18919 2.62509 8.99998 2.625H4.49998C4.29845 2.62509 4.10065 2.67932 3.92725 2.78201C3.75385 2.88469 3.61121 3.03208 3.51426 3.20874C3.4173 3.38541 3.36958 3.58488 3.37608 3.78631C3.38259 3.98773 3.44308 4.1837 3.55123 4.35375L9.26998 13.335L3.66748 19.4934C3.56604 19.6024 3.48724 19.7304 3.43564 19.8701C3.38404 20.0097 3.36067 20.1582 3.36689 20.3069C3.3731 20.4557 3.40878 20.6017 3.47184 20.7366C3.53491 20.8714 3.62412 20.9924 3.73429 21.0925C3.84446 21.1927 3.97341 21.2699 4.11367 21.3198C4.25392 21.3698 4.40268 21.3914 4.55134 21.3834C4.7 21.3754 4.84559 21.3379 4.97968 21.2733C5.11377 21.2086 5.23368 21.1179 5.33248 21.0066L10.5178 15.3028L14.0512 20.8538C14.1528 21.0134 14.293 21.1449 14.4588 21.236C14.6246 21.3271 14.8108 21.3749 15 21.375H19.5C19.7015 21.3749 19.8993 21.3207 20.0727 21.218C20.2461 21.1153 20.3887 20.9679 20.4857 20.7913C20.5827 20.6146 20.6304 20.4151 20.6239 20.2137C20.6174 20.0123 20.5569 19.8163 20.4487 19.6463ZM15.6178 19.125L6.54935 4.875H8.38217L17.4506 19.125H15.6178Z" fill="white"/>
</svg>
