<svg width="1180" height="516" viewBox="0 0 1180 516" fill="none" xmlns="http://www.w3.org/2000/svg">
<path d="M172.164 343.269L172.035 344.559L170.616 346.494L170.358 347.139L169.972 347.526L168.94 348.429L168.424 348.558L168.166 348.429L167.779 348.171L167.521 347.784L167.392 347.139L167.65 346.494L167.908 346.236L168.037 345.849L168.166 345.591V345.333L167.908 344.301L168.037 343.656L168.166 343.398V343.011L167.908 342.624L167.779 342.366L167.908 341.979L168.424 341.721L169.456 341.334L169.843 341.076H170.229L170.745 340.689L171.003 341.979L171.519 342.624L172.164 343.269Z" fill="#0B0B14" stroke="white"/>
<path d="M859.788 172.344L857.982 173.376L858.111 172.344L860.175 166.539L860.82 165.894L862.883 163.959L864.044 163.443L864.56 164.991L865.333 168.732V170.538L864.044 171.828H863.399L861.851 170.925L861.335 171.054L859.788 172.344Z" fill="#0B0B14" stroke="white"/>
<path d="M174.485 326.499L174.356 326.628V326.886L173.84 327.273L173.582 327.789V328.821L173.454 329.079L172.938 329.466V330.111L173.067 330.756L173.325 332.304L173.711 335.013V335.529L173.582 335.916H173.325L173.067 336.174H172.809H172.551L172.422 336.303L172.293 336.819L172.164 337.206L171.906 337.464L171.648 337.206L171.519 336.948L171.39 336.819L171.261 336.561H171.003H170.616L168.553 336.819H167.65L167.263 336.561L167.005 336.303L166.876 335.916V335.529L166.619 335.013V334.626L166.748 334.239L167.263 333.723V332.949L167.134 332.691L167.005 332.304H166.876H166.748V332.046H166.619V331.143L166.49 331.014L166.232 330.756L165.2 330.111L165.071 329.853L164.813 329.724L164.684 329.466L164.426 329.079L164.297 328.821L164.039 326.241V325.854L165.071 324.048L165.329 323.661L165.587 323.274L166.49 323.016L167.005 322.371H167.134H167.263L167.521 322.113L167.779 322.371L168.682 323.274L170.487 324.048H171.003L171.519 323.919L171.906 323.661L172.68 323.403H173.196L173.454 323.661L173.711 324.048L173.969 324.951L174.227 325.596L174.356 325.854L174.485 326.499Z" fill="#0B0B14" stroke="white"/>
<path d="M574.911 373.584L573.493 361.329L573.622 357.588L574.783 355.266L577.233 356.298L578.78 358.62L579.554 361.716L579.683 374.616L580.199 380.034L581.746 384.291L581.875 384.549V385.194L581.746 385.71L580.973 385.323L580.328 384.936L579.554 385.323L579.038 385.968L578.78 386.613L578.007 385.581L576.717 382.614L575.943 381.969L574.525 381.324L574.138 379.776L574.783 376.551L574.911 373.584ZM892.673 253.356L892.415 252.195V250.518L892.544 249.486L892.802 248.583L894.995 245.616L895.381 245.1L895.897 243.423L896.026 242.649L895.897 241.875L895.381 240.972L894.479 239.682L893.705 239.037L893.06 238.65L892.544 238.392L891.384 238.134L890.739 238.005L890.223 237.618L889.707 237.102L889.449 236.199L889.32 234.909V233.232V232.587L889.062 231.942L887.902 230.136L887.515 229.104L887.257 223.428L887.386 222.783L887.515 222.396L889.836 218.268L890.094 217.494L890.223 216.72L890.481 214.14L890.739 212.85L890.997 212.076L891.384 211.56L892.931 210.012L893.318 209.367L893.576 208.593L894.737 204.852V204.078V203.304L893.06 196.338L892.673 195.564L892.157 195.048L891.126 194.919H889.836L887.644 195.306L884.162 195.435L877.327 194.79L876.295 195.693L876.037 196.08L873.587 198.531L872.684 199.176L871.523 199.434L869.976 199.305L868.686 198.918L867.913 197.499L867.268 197.112L866.494 196.725L865.849 196.596L864.173 196.725L863.786 196.596L863.657 196.08L862.754 195.048L861.722 194.919L860.949 195.564L860.175 198.015L859.401 198.66L858.24 198.789H856.951L857.08 200.466L857.725 201.111L858.756 201.498L859.659 202.143L861.464 204.852L866.365 218.784L866.623 220.461L866.494 221.751L865.978 224.718L865.849 227.556L866.365 230.652L867.268 233.619L868.944 235.812L871.523 238.263L872.684 239.811L872.813 241.359L871.781 242.52H870.105L868.428 241.746L867.139 240.843L866.494 240.585L865.075 240.714L864.302 240.327L863.141 239.424L862.496 239.166L860.304 239.424L858.756 239.037L854.501 237.489L853.598 236.844L852.953 235.812L852.05 228.588L851.276 225.621L848.826 219.945L848.181 216.978L847.924 211.044L848.439 205.239L848.052 202.53L847.924 199.692L847.408 198.144L847.021 198.789L846.376 199.305L845.731 199.821L844.957 200.208L843.152 201.885L842.894 202.917V204.207L842.378 205.368L841.217 206.013H839.928L838.638 205.884L837.22 205.755L835.543 206.271L834.254 207.045L831.932 209.367L830.643 210.141L827.934 211.302L827.161 211.947V213.108L827.677 214.527L829.095 217.236L829.611 218.784L829.869 220.332L830.127 228.975L830.643 231.684L831.932 233.748L833.351 234.264L834.511 234.135L835.027 234.393L834.898 236.586L834.125 239.295L833.609 240.585L832.835 241.875L830.643 243.939L830.127 244.713L830.256 246.261L832.448 245.229L832.706 246.519L832.19 247.938L830.514 250.389L829.998 251.808L829.611 254.904L829.095 255.936L822.26 262.386L818.778 264.45L815.812 264.063L815.425 263.547L814.909 261.741L814.522 260.967L813.878 260.322L812.33 259.29L807.687 255.033L806.656 253.614L805.882 252.195L804.463 247.422L803.432 246.519L802.142 246.39L799.047 247.035L795.823 246.39L793.373 246.132L792.986 245.487L792.857 244.326L793.115 243.939L794.146 243.036L794.404 242.391L793.889 239.037L792.857 237.489V235.425L792.341 233.361L791.825 232.587L791.051 231.813L790.922 231.297L790.793 230.652L790.664 230.136L790.149 230.007H788.988L788.472 229.749L787.956 228.201L787.054 227.685L785.248 226.911L782.798 225.105L781.25 224.331L777.252 223.686L772.481 221.364L770.804 221.88L770.289 223.041L771.965 230.007V233.49L771.191 236.586L769.644 239.037L770.16 242.004L768.612 245.487L753.137 265.611L735.34 280.962L732.245 282.768L730.826 283.929L730.31 285.219L730.052 287.025L729.408 288.702L727.731 291.669L724.249 295.539L723.733 296.442L723.347 296.829L721.541 298.248L721.154 298.893L721.025 300.57L720.896 301.086L720.638 301.731L719.349 303.666L713.545 308.826L711.095 312.696L710.837 313.341L710.063 313.728L706.452 316.824L704.518 318.243L704.002 318.888L704.905 320.436L703.357 323.274L699.489 327.531L697.038 328.821L684.142 332.82L683.239 332.691L678.726 334.497L667.506 336.948L647.13 342.237L626.109 347.784L614.89 348.171L600.833 351.009L598.512 352.041L590.516 357.072L585.228 361.071L584.455 361.974L583.939 363.006L583.552 365.844L582.262 370.359V372.165L582.649 373.326L583.423 374.1L584.326 375.003L585.486 375.648L588.324 376.422L589.871 376.938L589.484 377.196H589.355H589.226L588.839 376.938L587.421 378.228L585.615 378.099L583.552 377.583L581.36 377.454L581.875 378.486L582.778 381.582L583.294 382.485L585.744 384.807L587.292 386.226L587.808 387.645L586.389 386.742L585.099 385.839L584.455 385.71L582.004 386.097L581.36 386.226L579.038 387.903L578.393 388.032L577.878 387.645L577.362 387.258L576.975 387L576.33 386.613L574.525 384.291L573.751 383.646L571.172 382.872L570.269 382.227L569.624 380.937L567.819 382.485L566.787 384.42L566.142 389.58L565.239 393.063L565.11 394.482L565.626 394.998L567.045 395.256L568.334 395.772L569.237 397.191L567.69 396.933L566.271 397.578L565.11 398.739L564.595 399.9L564.724 401.577L565.11 402.48L566.142 402.609L571.43 401.835L572.977 402.093L574.911 403.383L575.685 403.641L576.459 403.512L576.975 401.706L577.749 400.932L578.651 400.545L579.296 401.19L579.167 401.835L577.749 403.641L577.233 404.157L576.201 404.802L575.685 404.931L572.977 404.415L571.559 403.899L570.14 403.77L569.237 404.802L569.366 406.479L571.172 408.156L569.366 408.285L567.948 407.769L567.045 407.64L566.658 408.027L566.529 409.704L564.337 416.541L562.144 421.443L560.468 423.894L559.823 425.313L559.565 426.732L559.823 427.377L560.984 428.022L561.113 428.409L560.597 428.925L558.92 429.312L558.533 429.699L558.662 430.86L559.049 431.892L560.726 434.73L561.113 435.117L561.499 435.246L562.918 435.504L563.176 435.762L563.305 436.149L564.208 437.31V438.213L564.466 438.471L564.981 438.342L566.4 438.729H567.045L567.69 438.858L568.979 439.89L569.753 440.148L571.172 440.535L569.624 441.051L568.334 440.406L567.303 439.632L566.4 439.89L564.724 440.664L563.563 439.632L562.531 437.826L561.628 436.536L560.081 436.02L558.533 436.149L554.278 436.923L553.633 437.955L552.988 440.535L551.956 443.115L551.827 443.76L551.956 445.953L552.343 446.856L553.762 448.146L555.051 451.758L556.212 452.79L559.565 454.08L560.855 454.983L561.886 456.144L563.176 456.918L564.466 457.305H566.142L568.721 456.015L569.624 455.757L570.656 455.886L572.719 456.66L573.88 456.789L574.396 457.305L575.169 459.24L575.427 459.756L576.459 460.014L578.522 460.659L579.683 460.788L576.588 462.336L573.622 460.917L571.043 458.724L568.592 457.692L567.045 458.208L564.595 459.498L562.918 459.756L561.886 459.498L557.502 457.305L554.665 455.37L549.119 449.694L545.895 447.63L539.705 445.179L536.223 444.663L534.289 446.211V447.372L534.675 448.662L534.804 450.081L534.031 451.5L532.612 452.79L531.193 453.435L529.646 453.693L527.712 453.822V453.177L530.549 451.371L531.838 450.081L532.225 448.275L531.322 446.469L529.517 445.437L525.261 444.147L522.166 442.47L521.134 442.212H520.361L518.813 442.986L518.168 443.115L517.266 442.857L517.008 442.212L516.879 441.438L516.105 440.535L515.073 440.148L514.042 440.277L512.107 441.051L512.494 440.277L513.784 438.858L514.042 438.342L514.171 436.923L514.557 435.762L515.202 434.73L516.105 433.569L515.202 432.279L514.042 432.408L512.752 433.053L510.431 433.827L509.528 435.246L508.883 435.504H507.207L506.562 435.375L506.046 435.117L505.53 434.859L505.143 434.472L504.756 434.085L504.498 433.569V433.053L504.627 432.021L504.498 431.505L504.24 431.118L503.596 430.215L503.08 428.022L502.048 427.635L500.887 428.409L499.985 430.086L499.856 430.731L499.985 433.053L500.114 433.311L500.372 434.085L500.501 434.601L500.243 434.988L499.598 435.891L499.211 437.181L498.695 437.052L496.89 434.988L496.503 434.73L496.116 434.859L495.342 435.117L494.826 435.375L493.666 436.407L493.408 436.536L492.505 436.278L491.086 435.375L490.184 435.117L480.769 434.988L479.093 435.246L478.061 435.762L477.159 436.02H473.548L472.516 435.762L471.613 434.601L470.324 432.021L469.421 430.86L468.131 429.828L465.165 428.538L462.586 426.861L458.072 424.926L456.525 423.894L455.106 422.475L453.043 419.379L452.269 417.831L452.398 416.541L452.785 415.509L453.043 414.348L452.914 412.929L452.14 409.962L452.011 408.285L451.624 406.995L450.206 410.865L448.271 414.348L447.239 416.025L446.466 416.928L443.757 419.121L443.113 420.153L442.984 421.185L443.499 423.894V424.41V424.926L443.886 425.958L444.402 426.861L445.047 427.764L445.821 428.409L446.852 428.796H450.077L451.366 429.312L451.753 430.731L451.237 436.536L451.366 439.89L451.753 441.309L452.527 442.857L453.945 444.663L460.522 450.21L461.038 450.984L461.167 453.048L461.683 453.177L463.102 452.403L463.618 452.919L464.907 456.015L466.197 457.047L467.615 457.176L469.163 457.047H470.581L471.871 457.692L472.774 458.982L474.192 463.239L475.095 464.787L475.998 465.561L478.706 466.851L479.996 468.141L481.543 470.979L483.22 472.14L484.638 472.656L489.023 473.301L490.313 473.946L491.344 475.494L493.021 478.59L496.632 484.008L497.019 485.685L497.148 487.233L497.921 487.491L498.824 487.233L499.985 486.975L503.725 487.878L504.627 488.265L505.788 489.297L508.883 493.554L511.72 495.747L515.073 497.295L518.555 497.811L521.65 496.392L522.424 495.489L522.682 494.844L522.94 494.586L523.843 494.715L524.359 495.102L524.874 495.618L525.519 496.134L526.551 496.263L527.454 495.876L528.872 494.586L529.646 494.07H530.033L530.807 494.457H531.193L532.612 493.812L532.741 493.554L533.644 493.167L533.902 493.296L534.546 493.941H535.062L535.578 493.554L535.707 493.038V491.748L536.481 490.587L540.608 486.975L542.671 486.072L544.863 485.685L549.506 485.556L566.013 481.299L567.432 481.428L577.362 485.814L579.038 486.33H580.586L582.004 486.072L584.971 485.169H586.26L587.034 485.943L587.421 486.975L587.679 488.265L588.581 489.942L589.484 489.426L591.161 486.975L597.351 484.653L598.383 484.395L599.801 484.524L601.736 485.04L605.604 486.717L607.668 487.362L612.052 486.201L618.501 478.461L623.143 476.913L629.075 477.042L631.01 476.655L632.042 476.268L632.557 475.365L636.426 464.271L638.748 459.627L639.005 458.853V457.95L638.49 457.305H636.813L636.555 456.66L637.071 454.854L638.361 453.693L646.872 449.694L648.678 449.049L653.191 448.662L654.481 448.275L655.771 447.243L656.802 446.211L657.963 445.437L659.768 445.05L681.821 446.082L683.755 446.727H684.271L685.045 446.34L685.561 445.695L686.077 445.05L686.721 444.405L688.14 443.889L689.301 444.018L690.59 444.405L692.009 444.792L695.62 444.663L696.909 444.792L698.586 445.566L699.875 446.211L700.52 447.243L700.649 448.92L700.133 450.597L699.36 451.887L698.199 453.177L696.007 454.854L695.491 455.628L695.749 456.144L696.909 456.273L699.618 455.241L702.584 454.725L705.421 454.983L708.129 456.402L710.579 458.208L711.611 458.595L714.835 458.724L719.22 459.627L722.702 460.917L728.118 465.174L731.471 465.303L734.437 464.013L735.985 463.626L737.532 463.755L739.08 464.658L742.82 469.044L744.883 470.076L746.689 469.689L758.424 461.82L762.809 456.144L764.485 454.725L765.904 454.209L776.479 452.532H779.445L782.153 453.306L782.927 453.951L783.572 454.854L784.345 455.499L785.248 455.886L786.022 455.628L787.569 454.467L798.789 449.823L800.208 449.436L801.884 449.694L803.561 450.597L809.364 454.725L811.04 455.112L812.717 454.725L813.878 453.693L814.393 452.274V450.597L814.007 449.049V447.243L814.909 446.082L817.489 444.018L818.52 442.728L820.455 439.503L821.873 435.633L822.647 430.602L822.518 428.28L822.389 427.377L822.131 426.861L822.002 426.345L822.26 425.442L822.647 424.797L823.292 424.152L824.066 423.636L824.839 423.249L828.708 422.733L832.835 421.185L833.867 420.282L833.996 418.863L833.609 417.315V416.025L833.996 414.864L834.64 413.316L834.769 412.413V411.252L834.511 410.349L833.738 409.833L832.061 409.962L830.901 410.607L829.998 410.478L829.353 408.801L829.224 408.156L829.353 405.705L829.095 404.931L828.321 403.77L828.063 403.125L827.934 401.835L828.837 397.836L829.869 394.869L832.19 393.579L837.865 392.805L839.799 392.16L840.315 391.386L840.057 390.225L839.928 388.677L840.444 387L841.346 386.484L844.184 386.742L845.602 385.839L848.826 383.13L850.116 382.614L851.148 381.969L853.985 378.744L855.532 377.841L858.885 377.454L860.433 376.938L861.464 375.519L861.207 374.229L860.433 372.552L859.272 370.746L858.112 369.585L857.467 369.069L856.564 368.682L855.532 368.424L854.63 368.295L853.856 368.553L852.308 369.327H851.534L850.374 368.295L850.503 366.747L851.148 365.07L851.534 363.651L851.276 362.877L850.503 361.458L850.374 360.684L850.89 359.781L851.534 359.523L852.308 359.394L853.082 358.749L853.985 356.943L853.469 355.524L851.534 353.073L851.148 352.041L851.276 351.783L851.921 351.396L852.953 350.622L853.469 349.719L853.856 348.945L853.985 348.171L854.243 347.397L855.274 345.849L856.435 344.688L860.691 341.85L861.593 340.818L862.754 338.238L864.044 336.303L865.075 336.69L867.01 339.399L869.073 340.431L871.395 340.044L876.166 337.98L879.261 337.593L880.422 337.077L881.067 335.658L881.325 332.562L881.712 331.272L884.291 327.789L884.162 327.273L883.001 326.886L881.84 325.467V324.177L884.42 313.083L885.709 309.6L887.257 308.052L888.031 308.181L888.675 308.439L889.32 308.697L890.094 308.439L890.481 307.665V306.891L889.836 305.343L888.675 303.15L888.418 302.247V301.473L888.546 300.054L888.418 299.28L886.612 294.765L886.354 292.959V290.121L886.741 287.154L889.707 278.64L889.578 276.189L888.546 275.157L886.999 274.254L885.838 273.222L885.967 271.545L886.483 271.029L889.062 269.61L889.707 268.836L891.126 265.869L892.028 262.773L892.931 256.194L893.318 254.904L892.931 254.388L892.673 253.356Z" fill="#0B0B14" stroke="white"/>
<path d="M1019.18 70.0471L1018.93 69.4021L1019.18 68.7571L1019.83 68.1121L1020.6 67.9831L1024.34 67.7251L1025.5 67.4671L1026.28 66.8221L1026.66 65.5321L1026.02 64.8871L1023.31 64.7581L1023.05 63.7261L1023.96 62.8231L1026.92 62.4361L1028.21 61.7911L1030.02 64.1131L1031.31 66.3061L1030.92 68.6281L1028.21 70.8211L1026.28 71.4661H1023.96L1021.76 71.0791L1019.83 70.5631L1019.18 70.0471ZM998.293 35.2171L997.777 29.5411L998.164 28.3801L998.422 27.8641V24.6391L998.68 23.8651L999.067 23.6071L1000.23 23.0911L1000.87 22.7041L1002.68 21.0271L1004.35 19.8661L1005.26 19.4791L1006.29 19.3501L1011.83 18.3181L1013.51 18.8341L1014.41 20.1241L1014.54 21.8011L1013.77 27.4771L1012.99 29.6701L1011.83 31.0891L1010.54 30.4441L1009.13 30.9601L1004.87 31.7341L1003.97 32.2501L1003.58 32.6371L1001.65 33.5401L1000.87 33.9271L1000.36 34.8301L1000.1 35.6041L999.711 36.3781L998.938 37.0231L998.293 35.2171ZM983.462 30.1861L982.688 29.9281L986.299 23.3491L987.331 22.8331L989.781 22.3171L990.813 21.8011L993.779 18.3181L994.94 19.3501L995.327 21.0271L995.198 22.8331L994.424 23.8651L993.005 22.7041L991.974 23.2201L991.587 24.5101L992.361 25.9291L985.268 27.6061L985.655 28.3801L986.299 28.7671L986.686 29.1541L986.299 29.9281L985.655 30.3151H984.623L983.462 30.1861ZM1079.54 130.806L1079.41 130.29L1079.8 129.645L1080.7 129.129L1081.6 128.871L1083.54 128.742L1084.44 129.129L1084.7 129.774L1084.31 130.548L1083.54 130.806L1083.02 130.935L1081.73 131.451H1081.22H1080.7L1080.05 131.193L1079.54 130.806ZM1059.68 252.324L1059.94 253.098L1044.98 253.227L1041.11 249.873L1040.85 248.97L1041.37 247.938L1042.66 247.035L1044.2 246.39L1045.36 246.003H1046.65L1049.36 246.906L1050.65 247.164L1051.55 247.551L1052.2 248.325L1053.23 249.873L1053.88 250.647L1054.52 251.034L1055.29 251.163H1056.2L1059.68 252.324ZM1122.48 229.878L1123.39 230.91L1123 231.942L1121.32 232.458H1118.61L1117.58 233.49H1117.07L1116.68 233.232V233.103L1116.55 231.555L1116.16 231.168L1115.26 230.394L1115 230.007L1114.75 229.233L1115 228.975H1115.78H1116.03H1117.07L1120.81 229.491L1122.48 229.878ZM1109.72 219.429L1109.46 220.332V221.364L1108.04 220.074L1107.65 219.816L1107.39 220.203L1107.14 220.848L1106.75 221.364L1106.23 221.106L1105.07 220.203L1103.91 219.687L1102.75 219.429L1101.72 219.3L1101.46 219.171L1100.82 218.526L1100.43 218.268L1097.85 217.881L1092.82 216.333V215.817H1098.63L1099.53 215.688L1100.04 215.172L1100.43 214.656L1100.95 214.269L1102.36 214.527L1103.01 215.559L1103.65 216.849L1104.94 217.881L1105.98 216.591L1107.78 216.72L1109.84 217.365L1111.52 218.268V218.913H1110.36L1109.72 219.429ZM1161.3 168.216L1160.66 170.667L1160.53 171.828L1160.91 175.311L1160.66 177.117L1158.98 178.665L1155.37 182.535L1152.53 184.212L1138.99 188.985L1125.32 192.984L1122.61 194.661L1120.94 195.435L1119.13 195.951L1117.58 196.08L1116.42 195.822L1114.1 194.79L1111.91 194.532L1110.49 194.016H1109.46L1108.56 194.403L1106.49 196.08L1104.82 197.112L1104.17 196.983L1103.14 196.338L1102.75 195.822L1101.46 193.5L1098.88 190.662L1096.56 189.372L1095.01 188.985L1094.37 189.372L1093.6 189.114L1092.05 190.146L1089.73 192.081L1089.21 191.694L1088.82 191.952L1088.7 192.597L1088.82 193.629L1085.99 192.984L1083.28 194.532L1079.15 199.176L1077.99 200.079L1077.35 200.595L1077.22 201.498V202.272L1077.6 202.659L1078.12 202.788L1079.93 204.078L1080.44 204.465L1080.83 205.11L1081.73 207.303L1083.41 210.012L1085.47 212.334L1087.79 214.398L1090.37 216.333L1091.27 217.236L1091.92 217.623L1092.56 217.881H1093.21L1094.76 218.139L1095.4 218.268L1095.66 218.784L1096.3 220.074L1096.56 220.59L1097.08 221.106L1097.59 221.364L1098.88 221.88L1099.01 220.59L1100.04 220.332L1101.46 220.719L1102.49 221.364L1103.27 222.396L1103.4 223.299L1103.01 224.202L1102.24 225.105L1101.98 226.137L1102.62 226.911L1103.53 227.685L1103.91 228.201L1104.56 228.717L1105.85 227.943L1108.04 226.395L1108.81 226.782L1110.62 227.04L1111.52 227.427L1111.13 228.459L1111.91 229.749L1114.87 232.974V233.49L1114.23 234.264L1113.46 234.78L1112.81 234.651L1112.04 234.393L1111.01 234.006L1111.39 235.296L1111.01 236.457L1110.23 237.36L1109.46 238.134L1108.43 238.908L1107.27 239.166L1104.43 239.037L1103.14 239.166L1100.82 239.94L1099.4 240.069L1096.17 240.198L1094.5 239.811L1093.34 239.037L1092.43 240.327L1091.79 240.714L1085.21 242.52L1079.15 243.165L1077.48 243.681L1067.67 248.583L1066 248.712L1061.48 247.293L1060.32 247.164L1059.42 246.777L1056.58 244.068L1055.55 243.552L1054.91 243.294L1054.26 243.165L1054 242.778L1053.49 241.488L1053.23 241.101L1052.2 240.972L1049.88 240.069L1048.07 239.811L1047.43 239.553L1045.75 238.392L1044.98 237.102L1044.2 235.683L1043.04 234.264L1042.01 234.393L1040.33 235.425L1038.92 236.715L1038.27 237.489L1038.53 238.134L1039.95 239.037L1040.33 239.811V242.907L1040.59 243.681L1041.75 244.713V245.616L1041.49 246.519L1040.85 247.164L1039.3 248.196L1038.79 248.712L1038.4 249.357L1038.01 249.873L1037.76 250.389L1038.01 250.776L1039.3 252.066L1039.82 252.711L1039.04 252.582L1038.53 252.711L1035.43 253.872L1034.79 253.356L1033.5 252.84L1031.56 252.969H1030.4L1027.83 252.582L1025.76 252.066L1024.09 250.905L1019.83 246.519L1013.9 243.552L1011.19 241.617L1010.54 240.843L1010.16 240.198L1009.64 239.682L1008.61 239.424L1007.71 239.682L1006.42 240.714L1005.77 241.101L992.232 241.359L987.976 240.198H985.01L979.206 241.359L976.369 240.714L973.661 238.779L972.372 238.65L970.05 240.585L968.632 240.972L967.213 241.101L965.279 240.327L963.473 241.23H962.441L959.217 236.586L958.444 236.457L957.928 237.36L956.38 238.908L955.735 239.94L955.864 240.714L956.122 241.23L956.38 241.746L955.735 242.262L954.446 242.649L953.543 242.391L952.769 242.262L950.964 244.197L950.19 244.455L949.416 244.326L948.772 243.939L946.837 240.843L946.579 239.811L946.321 239.424L945.805 239.295L945.29 239.424L944.774 239.295L942.839 237.489L940.905 237.747L938.841 238.908L936.778 239.424L935.746 239.295L932.393 238.392L930.717 238.263L929.943 238.134L929.169 237.747L928.525 239.295L928.009 240.198L927.235 240.843L925.945 241.746L922.334 245.229L921.432 245.745L920.271 245.229L919.497 244.326L918.981 243.165L918.723 242.004L918.208 241.488L917.305 240.972L915.628 240.327L912.404 240.069L910.986 239.682L910.341 238.65L909.954 237.489L909.309 236.844L908.407 236.973L907.504 238.005L906.73 240.327L906.859 242.778L906.472 244.971L903.635 247.293L903.377 248.325L902.99 249.099L901.958 249.357L901.314 248.97L900.798 248.325L900.153 248.067L897.058 250.905L896.542 251.679L896.026 252.066L894.608 252.582L893.963 253.227L893.318 254.904L892.931 254.388L892.673 253.356L892.415 252.195V250.518L892.544 249.486L892.802 248.583L894.994 245.616L895.381 245.1L895.897 243.423L896.026 242.649L895.897 241.875L895.381 240.972L894.479 239.682L893.705 239.037L893.06 238.65L892.544 238.392L891.384 238.134L890.739 238.005L890.223 237.618L889.707 237.102L889.449 236.199L889.32 234.909V233.232V232.587L889.062 231.942L887.902 230.136L887.515 229.104L887.257 223.428L887.386 222.783L887.515 222.396L889.836 218.268L890.094 217.494L890.223 216.72L890.481 214.14L890.739 212.85L890.997 212.076L891.384 211.56L892.931 210.012L893.318 209.367L893.576 208.593L894.737 204.852V204.078V203.304L893.06 196.338L892.673 195.564L892.157 195.048L891.126 194.919H889.836L887.644 195.306L884.162 195.435L877.327 194.79L879.261 193.113L881.582 190.017L882.485 189.63L884.033 189.372L885.451 188.727L886.612 187.824L887.257 187.05L887.773 185.889L888.288 182.922V180.213L888.546 179.439L889.32 178.02L889.965 177.375L890.61 176.859L890.868 176.343L890.352 175.311L887.515 176.601H884.806L882.356 175.569L875.779 169.893L875.521 169.119L875.779 168.603L875.65 168.087L874.876 167.958L874.619 168.087L873.2 169.377L872.684 168.474L872.942 167.313L873.458 166.281L873.845 163.83L874.361 162.798L875.005 162.024L875.134 161.508L876.037 160.734L879.906 158.541L880.809 156.993L881.582 155.832L886.741 152.22L889.32 146.544L890.868 145.125L891.899 146.802L889.32 151.575L890.868 153.639L891.255 152.865L891.512 150.93L891.899 150.156L894.35 152.22L895.897 152.994L902.474 153.381L904.538 153.252L906.472 152.607L908.793 150.672L910.728 147.834L912.146 144.609L913.049 141.642L913.565 138.417L914.081 136.998L914.855 135.708L915.886 134.934L922.592 131.193L923.753 129.903L924.14 128.226L924.398 124.872L924.785 123.324L929.298 116.1L930.459 112.875L929.298 110.682L927.622 111.327L926.977 110.295L927.751 109.005L929.943 108.231L931.233 107.457L934.715 102.168L936.391 100.749L937.294 100.362L938.584 100.104L939.357 100.491L940.518 101.007L941.421 101.136L941.808 100.362L941.55 97.9111L940.647 97.7821L939.228 98.4271L937.294 98.6851V98.0401L939.357 97.0081L940.518 95.7181L940.776 95.4601L941.292 95.3311L942.839 95.4601L943.484 95.0731L943.613 94.8151V94.4281L944.258 91.9771L944.516 91.5901L944.903 90.9451L945.547 90.1711L952.124 85.2691L953.156 84.1081L954.575 83.0761L955.993 82.4311L957.025 81.6571L957.412 80.1091L957.541 78.6901L957.799 77.2711L958.315 76.2391L959.346 75.7231L960.636 74.8201L965.15 68.6281L966.31 67.5961L967.084 66.5641L967.471 65.2741L967.6 63.4681L967.471 60.8881L967.6 60.1141L967.858 59.5981L968.761 58.3081L969.147 57.6631L969.019 54.8251L969.276 53.5351L971.34 52.5031L971.985 51.3421L972.629 48.5041L972.758 46.8271L972.887 46.1821L973.403 45.9241L973.79 45.6661L974.564 44.5051L974.951 43.6021L975.596 43.0861L976.369 42.5701L977.272 42.4411L977.401 42.6991L978.175 44.3761L981.27 46.4401L981.657 47.2141L982.688 52.5031L981.399 51.7291L980.496 51.4711L980.238 51.7291L979.722 54.0511V54.5671L980.496 55.2121L981.657 55.7281L982.817 56.3731L983.204 57.7921L982.946 60.7591L982.173 62.6941L979.722 66.1771L978.304 68.7571L977.272 71.9821L977.659 74.5621L980.754 75.2071L982.302 74.5621L983.333 73.1431L984.236 71.8531L985.01 71.2081L986.041 70.8211L989.265 67.7251L991.716 65.9191L992.232 65.0161L992.49 62.4361L992.876 62.1781L993.263 62.0491L993.779 61.6621L994.811 59.5981L997.519 56.8891L997.906 55.8571L997.39 54.3091L995.843 51.0841V49.5361L996.487 48.6331H997.003L997.777 48.7621L998.68 49.0201L999.325 48.7621L999.711 48.2461L999.969 47.7301L999.711 47.4721L999.067 47.0851L998.938 46.3111L999.067 45.5371L999.453 45.0211L1000.23 44.7631L1001.13 45.0211L1001.9 45.4081L1002.42 45.5371L1003.06 45.1501L1004.23 44.1181L1004.74 44.2471L1005.26 44.5051L1007.19 45.2791L1007.71 45.5371L1007.96 45.7951L1011.83 48.1171L1012.22 48.3751L1012.48 49.0201L1012.61 50.3101L1012.09 53.7931L1011.83 54.5671L1010.8 55.0831L1010.42 56.3731L1010.67 57.9211L1011.06 59.0821L1013.64 62.5651L1014.03 63.8551L1014.28 68.4991L1014.54 69.6601L1015.44 71.2081L1016.35 71.8531L1019.31 71.7241L1020.47 72.1111L1021.51 72.8851L1023.05 74.8201L1024.99 76.4971L1026.28 77.4001L1027.44 77.7871L1028.6 77.5291L1029.37 76.6261L1031.18 73.7881L1032.34 72.3691H1032.98L1033.24 73.5301V75.4651L1033.5 75.5941L1035.3 77.2711L1034.92 77.1421L1034.79 77.5291L1034.66 78.0451L1034.79 78.3031L1035.05 78.4321L1035.95 78.6901L1036.34 78.8191L1037.37 79.8511L1038.14 80.2381L1039.04 80.3671L1040.08 79.8511L1040.85 79.7221L1041.62 80.1091L1043.3 82.0441L1044.07 83.2051L1044.85 84.8821H1045.36L1045.62 84.2371L1046.01 83.9791H1046.4L1046.91 84.3661L1047.17 84.8821L1047.3 85.3981V86.0431L1047.43 86.9461L1047.69 87.5911L1048.33 88.8811L1048.46 89.3971L1048.2 90.0421L1047.69 90.6871L1047.3 91.4611L1048.07 93.3961L1047.43 98.2981L1046.91 99.3301L1045.75 99.4591L1043.3 99.0721L1042.01 99.4591L1040.72 100.362L1038.53 102.297L1037.88 103.587L1038.27 104.748L1039.82 106.554L1040.98 109.521L1042.14 109.908L1042.4 110.295L1042.53 111.069L1042.66 111.585V112.23L1042.4 113.133L1041.75 113.778L1041.11 114.036L1040.46 114.294L1040.33 115.197L1040.72 116.358L1041.88 116.745L1042.91 117.132L1043.3 118.938L1042.91 120.099L1041.88 121.131L1039.3 122.808L1029.89 125.904L1028.21 127.839L1029.5 127.581L1033.76 125.775L1035.56 125.259H1040.85L1045.75 124.614L1049.36 125.001L1050.65 124.872L1051.17 124.098L1050.52 122.292L1051.3 121.776H1052.07L1052.97 122.034L1054 122.292L1055.29 122.163L1058.78 121.518L1059.55 121.002L1059.94 120.099L1060.97 119.196L1063.03 117.777L1065.35 114.681L1066.64 113.907L1067.03 113.649L1067.55 113.391L1068.58 113.649L1071.03 116.229L1071.29 117.003L1071.16 117.777L1071.29 118.422L1072.57 119.067L1072.7 119.97L1072.57 121.518L1072.96 123.195L1076.06 127.323L1076.44 127.71L1076.57 128.226L1074.38 131.064L1073.35 131.709L1071.67 132.225L1069.87 132.354L1068.58 131.838L1067.29 132.225L1062.77 131.838L1061.48 132.225L1060.71 133.128L1060.58 134.031L1061.23 134.418L1061.61 134.934L1063.81 140.739L1064.45 141.255H1064.71L1065.1 141.126L1066 140.868L1067.16 140.61L1070.12 139.191L1071.41 138.933L1071.93 139.062L1072.45 139.707L1073.09 139.965L1073.74 139.836L1074.38 139.449L1075.15 139.32L1075.93 139.707L1076.7 140.739L1077.22 140.997L1077.86 140.739L1078.51 139.836V139.32L1078.12 138.546L1078.64 137.256L1079.02 136.74L1079.41 136.224L1079.67 135.579L1079.02 134.289L1079.15 133.515L1080.31 132.612L1083.67 132.354L1086.63 130.935L1088.18 131.322L1092.05 133.257L1092.43 133.386L1092.82 133.128L1093.6 132.225L1094.24 131.967L1095.01 132.225L1095.66 132.741L1096.17 132.999L1097.59 133.257L1105.07 137.643L1107.65 139.836L1108.68 140.352L1109.97 140.997L1111.13 141.771L1111.52 142.674L1111.26 143.319L1110.75 143.835L1110.23 144.093L1109.97 144.351L1109.2 148.479L1108.68 150.156L1108.56 151.704L1108.94 153.252H1109.46L1110.23 151.317L1110.75 150.543L1111.26 149.898L1111.52 149.124V147.06L1111.78 146.286L1113.71 144.867L1115.26 144.996L1116.68 145.899L1120.16 150.156L1121.58 151.446L1122.87 152.091L1124.8 152.349L1126.22 153.381L1127.25 154.8L1127.77 156.606L1128.29 156.219L1128.54 155.832L1128.67 155.316V154.542L1132.16 157.251L1133.44 157.638L1134.99 158.283L1136.28 159.831L1136.54 161.379L1135.25 162.153L1136.02 162.798L1137.18 163.185H1138.35L1139.25 162.669L1139.51 161.637L1138.99 160.863L1138.86 160.218L1139.89 159.702H1141.57L1145.18 161.508L1147.37 161.637L1153.05 158.928L1154.98 158.67L1156.14 159.186L1157.17 160.347L1158.98 162.669L1160.53 164.217L1161.17 165.249L1161.56 166.41L1161.3 168.216Z" fill="#0B0B14" stroke="white"/>
<path d="M229.036 132.483L231.744 129.129L231.873 129L232.518 129.516L236.387 131.838L238.063 133.257L239.611 135.063L240.514 137.385L241.287 138.546L243.222 139.449L256.505 149.898L259.6 151.446L262.695 152.091L263.856 152.865L267.725 156.219L274.56 163.83L282.039 175.698L284.619 181.89L291.969 194.145L296.225 202.014L296.741 203.433L296.999 203.949L298.289 205.497L298.675 206.271V207.045L298.16 209.238L298.289 210.915L298.933 214.011L300.223 225.105L300.094 226.782L299.449 228.201L298.933 229.749L299.836 232.974L299.707 234.006L302.028 240.843L302.286 243.165L302.028 243.939L300.997 246.519L300.481 247.422L299.965 247.809L298.933 249.099L298.675 249.615V250.26L299.191 252.195L298.675 252.969L298.289 253.227L297.902 253.098L297.515 252.84L296.483 252.582L291.067 252.453L290.809 252.324L290.551 252.195L290.422 252.066L290.293 251.937L290.164 251.808L289.906 251.679L289.261 251.421H289.132V251.679L289.39 253.098V253.485L289.519 254.517V255.162L289.39 255.678V255.936L289.261 256.194L289.003 256.71L288.874 256.839L288.487 257.097L288.358 257.355L288.23 257.613L287.972 259.29V259.548V259.806L288.101 260.451V260.709L288.23 260.838L288.358 261.096L288.616 261.225L289.003 261.483L289.261 261.612L289.39 261.741L289.519 261.999L289.648 262.386L289.777 263.031V263.289L289.648 263.676L289.519 264.192L289.39 264.708V264.966L289.519 265.224L289.648 265.611V265.74L290.293 266.901L290.938 268.836V269.094V269.481V269.739L290.809 270.513L290.551 271.029L290.293 271.545L289.906 271.932L289.777 272.19L289.519 272.319L289.39 272.448L289.261 272.706V272.835L289.39 274.512V274.77L289.261 274.899L288.874 274.77L288.358 274.383L288.101 273.996L287.972 273.738L287.327 272.061L287.069 271.674L286.166 270.9L286.037 270.513V270.255L286.166 269.739V269.481V269.223L286.037 268.965L285.779 268.578L284.619 267.417L283.974 266.643L283.716 266.256L283.587 265.869V265.74L283.458 264.708L283.329 264.45L283.071 264.321H282.426L282.168 264.45L281.91 264.708H281.652L281.395 264.579L281.137 264.192L280.879 263.934L280.75 263.676V263.16L280.621 262.902L280.363 262.773L279.976 262.902L279.46 263.16H279.202L278.686 263.031L277.01 261.87L276.494 261.612L276.107 261.354L275.849 261.225L275.591 260.709L275.462 260.58L275.204 260.451L275.075 260.322L274.946 260.064L274.818 259.806L274.689 259.548L274.56 259.419L274.302 259.29L274.173 259.161L271.593 258.258L271.078 257.871L270.691 257.613L270.433 257.355L270.046 257.097L267.983 256.71L266.951 256.323L266.822 256.194L266.564 256.065L266.177 255.807L265.145 255.936L261.148 257.613L260.374 257.742L260.116 257.613L259.858 257.484L259.729 257.355L259.471 257.226L259.213 256.839L258.439 255.678V255.291L258.568 255.033L259.471 253.743L259.6 253.485L259.729 252.969L259.987 251.937V251.292L259.858 250.002L260.503 247.164L260.761 245.874V245.616L260.89 245.229L261.277 244.713L261.921 244.068L262.179 243.681L262.566 242.52L262.695 242.133L263.082 241.746L263.727 241.23L264.114 240.972L264.501 240.843H264.887H265.145L265.79 240.972H265.919H266.435L266.693 240.714V240.456L266.306 239.295V238.908L266.564 238.263L267.08 237.231L267.467 236.199V235.296L266.951 235.167L266.822 234.909L266.693 234.393L266.564 233.619L266.435 233.361L266.306 232.974L263.856 230.652L263.469 230.523H263.082L262.953 230.652L262.695 230.781L262.566 230.91L262.437 231.168L262.308 231.684V231.942L262.05 232.071H261.792L261.663 231.942L261.148 231.555L261.019 231.426L260.761 231.297L260.503 231.168H259.6H259.342H258.697H258.568H258.31L257.279 231.039L257.021 230.91L256.763 230.652L256.247 229.878L255.731 229.362L255.086 228.975L254.828 228.588L254.57 228.072L254.313 226.653L254.055 226.008V225.363L254.184 224.718L254.442 224.46L254.57 224.202L254.828 224.073L255.602 223.815L255.731 223.686L255.989 223.557L256.118 223.428L256.247 223.17V222.912L256.376 221.235L256.505 220.977L256.763 220.848L256.892 220.461V220.074L256.634 219.171L256.505 218.655L256.247 218.139L256.118 217.881L255.473 217.107L254.184 215.817L253.023 215.559L250.96 215.688H249.67L248.38 215.559L247.864 215.43L247.478 215.301L246.059 214.914L245.285 214.527L243.996 213.495L242.835 212.85L242.19 212.076L240.643 209.109L241.03 207.948L240.901 207.432L240.256 205.884L240.127 205.497L239.869 205.239L239.482 204.723L239.353 204.078L239.224 203.046L239.095 202.659L238.837 202.401L238.321 202.272L238.063 202.143L234.324 199.563L232.518 198.789L232.26 198.66H232.002L231.744 198.789L231.615 198.918L231.486 199.047L231.228 199.176L230.842 199.305L230.068 198.918L229.681 198.531L229.552 198.273L229.681 196.854L229.81 196.209L229.681 195.048L229.036 192.984L228.907 192.339L228.778 192.081V191.952V191.823V191.694L228.907 191.565L229.036 191.307L229.165 191.178L229.423 191.049H229.681L229.81 190.791L229.939 190.404L229.036 186.792V186.405L229.165 186.147L229.294 186.018L229.939 185.889H230.068L230.197 185.631V185.373L230.326 185.115L230.455 184.986L230.713 184.47L230.842 184.212L230.713 183.954L230.197 183.567L229.423 182.793L229.165 182.535L229.036 182.406H228.778L228.391 182.148L228.133 181.89L227.102 180.729L226.844 180.6L226.328 180.342L225.941 179.955L225.683 179.826H225.425H225.038L224.78 179.697L224.522 179.568L224.264 179.31L224.007 179.181L222.975 178.923L222.459 178.665L222.33 178.407V178.149L222.717 176.859L222.846 176.343V176.085V175.827L222.717 174.666L222.846 170.409L223.104 168.732V168.474L224.007 166.668L224.393 164.733L224.264 164.088L224.007 163.701L222.33 162.411L221.169 160.863L221.04 160.476V160.218L221.298 160.089L221.427 159.444V158.283L220.911 153.897V153.123L221.556 152.736L221.685 152.607V152.22V148.35L221.814 147.189V146.673L221.556 146.028L221.427 145.512L220.396 141.384L220.783 140.481L223.362 137.772L229.036 132.483Z" fill="#0B0B14" stroke="white"/>
<path d="M189.187 336.174L188.929 335.142L188.8 333.981L188.671 332.82L188.8 331.788L189.187 329.466L189.058 328.95V328.692L188.929 328.176L188.671 327.66L188.155 326.886L187.897 326.241V325.854L187.768 325.596L188.026 323.661V323.403L187.897 323.145L187.768 322.629L187.252 321.726L186.995 321.081L186.737 320.694L186.608 320.436L186.221 320.307L185.705 320.178L183.77 319.92H183.384L180.675 318.501L179.902 318.372L179.644 318.243L179.386 318.114L174.614 311.922L175.388 309.858L176.033 308.697L176.162 308.439V308.052L175.646 305.601L175.517 305.343L175.388 304.956L174.872 304.182L174.743 303.924L174.614 303.666V302.634L174.872 301.989L176.162 299.538L176.42 299.409L176.549 299.28L177.064 299.151L177.322 299.022L177.451 298.893L177.58 298.635L177.709 298.248L178.225 296.055V295.41L177.451 294.249L176.42 292.83L176.162 292.056L176.033 291.798L175.904 291.54L175.775 291.411L175.517 291.024L175.388 290.766L175.13 290.121L174.614 289.734L172.164 288.315L170.745 287.67H169.585L169.198 287.541L167.908 286.896L167.521 286.638L166.49 285.864L164.426 282.51L163.137 282.897L162.879 283.155L162.621 283.413L162.363 283.8L159.784 287.154L158.236 288.702L157.591 289.218L156.946 289.476L156.56 289.605H155.915L155.657 289.476L155.528 289.347L155.399 289.218L155.012 288.444L154.754 288.315L154.625 288.186L154.109 287.928L153.98 287.799L153.722 287.67L153.593 287.412L153.464 287.283L153.078 286.896L152.433 286.767L152.304 286.638L152.175 286.509L152.046 286.38L151.659 285.477L151.53 285.219L151.014 284.574L150.756 284.316L150.627 284.187H150.369L149.467 284.058L148.951 283.929L148.435 283.671L148.306 283.413L148.048 283.284L147.79 283.026H147.532L147.403 282.897L147.145 282.768L147.016 282.51L146.887 282.381L146.758 282.123V281.865L146.501 281.478L146.243 281.22L145.469 280.962L144.953 280.833L143.921 280.962L143.405 281.091L143.019 281.22L142.89 281.349L142.761 281.478L142.632 281.736L142.503 281.994L142.374 282.51L142.245 282.768V283.155L142.374 283.284L142.89 283.8L143.019 284.058L143.276 284.961L143.663 286.251L143.792 287.541L143.148 288.573L141.471 289.476L140.826 289.734L139.021 290.121H137.602L137.344 289.992L137.086 289.863L136.957 289.605L136.828 289.476L136.699 288.96L136.57 288.702V287.025L135.926 286.638H135.41L134.378 287.154H134.12L133.862 287.025L133.475 286.509L133.088 286.251L132.702 286.122L132.573 286.251L131.928 286.509L131.412 286.767L130.896 286.509L130.38 285.735L130.251 285.477L129.993 285.219H129.735L129.478 285.348L129.349 285.606H128.962L128.833 285.477L128.704 285.219L128.833 284.703L128.704 284.445L128.059 283.929H127.801L127.543 284.058V284.316L127.414 284.574L127.285 284.832L126.254 285.348H125.867L125.48 285.09H124.835L124.319 285.606H124.19V285.477L124.319 284.961V284.316L124.448 284.187H124.835L125.48 284.316L125.738 284.187L125.867 284.058V283.929L125.738 283.671L125.48 283.413L125.222 283.155V282.51L125.093 282.252L124.835 282.123L124.706 282.252L124.577 282.51L124.448 282.639L124.19 282.768L124.061 282.897L123.674 283.155L123.416 283.284L123.158 283.8L122.901 283.929H122.772V283.671L122.643 283.413V281.865L122.514 281.478L122.256 281.349L122.127 281.478L121.353 281.607H120.837L120.579 281.478L120.321 281.22L120.192 280.833L119.934 280.575L119.676 280.446H119.419L119.29 280.575L118.903 280.704L118.774 280.833H118L117.742 280.962L117.613 281.091L117.484 281.349V281.607L117.355 282.123L117.226 282.252L116.968 282.381L116.452 282.51H116.195L115.937 282.381L115.808 282.252L115.679 281.994V281.478L115.808 280.962L116.066 280.575L116.323 280.188L116.452 279.93L116.323 279.672L116.066 279.285L114.131 278.124L114.002 277.995V277.479L114.131 277.221V277.092L114.26 276.834V276.447L114.002 276.06L113.744 275.931H112.97L110.778 276.576L108.199 276.834L106.78 277.221L106.522 277.35L105.233 278.382L104.459 280.188V281.478L105.233 282.252L108.586 282.768L109.875 283.671L111.81 285.993L112.97 288.057L113.357 288.573L114.131 289.089L115.937 289.863L121.224 293.604L122.514 295.152L123.029 296.7L123.674 300.054L125.222 302.118L125.738 303.795L126.254 304.44L128.575 306.762L132.057 311.406L132.573 312.567L132.831 312.954L134.12 313.728L135.668 313.986L136.055 314.631L136.313 315.276L136.57 315.792L139.15 317.985L140.181 319.146L140.568 320.694L142.116 330.24L142.632 331.143L144.695 332.82L145.211 333.723L145.727 337.335V339.27L144.953 340.044L143.792 340.431L142.761 341.463L139.15 345.978L139.021 346.881L140.568 347.139L139.408 350.493L141.084 351.654L144.437 352.041L147.661 352.686L149.982 354.75L153.593 360.297L155.27 362.361L158.236 364.425L159.784 365.07L162.363 365.457L163.781 366.231L167.908 366.876L169.198 367.779L169.843 368.553L170.874 369.198H171.39L171.519 367.392L172.035 366.489L172.422 365.844L172.551 365.328L172.68 364.038L172.809 363.651L173.454 362.619L175.13 358.749L175.001 355.782L174.227 351.267V349.59L174.356 349.461L175.388 349.332H176.033L178.225 349.461L180.933 349.977H181.191L181.707 349.848L182.223 349.59L183.126 348.945L183.513 348.558L183.77 348.171L183.899 347.397L184.157 345.591L184.544 344.301L184.802 343.914L185.06 343.398L186.479 342.495L186.737 342.237L186.866 341.979L186.995 341.463V340.56L187.123 339.528L187.51 338.625L187.639 338.109L188.026 337.722L188.671 337.464L189.058 337.206L189.187 336.948L189.316 336.69L189.187 336.174ZM172.035 344.559L170.616 346.365L170.358 347.01L169.972 347.526L168.94 348.429L168.424 348.558L168.166 348.429L167.779 348.171L167.521 347.655L167.392 347.139L167.65 346.365L167.908 346.236L168.037 345.849L168.166 345.591V345.333L167.908 344.172L168.037 343.656L168.166 343.398V343.011L167.908 342.624L167.779 342.237L167.908 341.85L168.424 341.592L169.456 341.334L169.843 341.076H170.229L170.745 340.689L171.003 341.979L171.519 342.495L172.164 343.269L172.035 344.559ZM174.356 326.628V326.886L173.84 327.273L173.582 327.66V328.692L173.454 328.95L172.938 329.466V329.982L173.067 330.756L173.325 332.175L173.711 335.013V335.4L173.582 335.787L173.325 335.916L173.067 336.045H172.809L172.551 336.174L172.422 336.303L172.293 336.819L172.164 337.077L171.906 337.335L171.648 337.206L171.519 336.948L171.39 336.69L171.261 336.561L171.003 336.432H170.616L168.553 336.69H167.65L167.263 336.561L167.005 336.303L166.876 335.916V335.529L166.619 335.013V334.497L166.748 334.239L167.263 333.723V332.949L167.134 332.562L167.005 332.304H166.876L166.748 332.175V332.046L166.619 331.917V331.143L166.49 330.885L166.232 330.627L165.2 330.111L165.071 329.853L164.813 329.724L164.684 329.466L164.426 328.95L164.297 328.692L164.039 326.112V325.854L165.071 324.048L165.329 323.532L165.587 323.274L166.49 322.887L167.005 322.371L167.134 322.242H167.263L167.521 322.113L167.779 322.242L168.682 323.274L170.487 324.048H171.003L171.519 323.919L171.906 323.661L172.68 323.403H173.196L173.454 323.661L173.711 324.048L173.969 324.822L174.227 325.467L174.356 325.854L174.485 326.37L174.356 326.628ZM137.989 336.819L137.344 337.206L136.184 337.464L135.668 336.819L136.313 335.787L137.602 335.271L138.247 336.045L137.989 336.819ZM143.019 336.174L143.148 337.077L142.89 338.754L141.987 339.657L140.568 340.302L139.408 341.076L139.021 341.463L138.505 341.85L137.989 341.979L137.86 341.463L137.989 340.689L139.795 336.303L140.826 334.755L142.116 334.11L143.019 334.626L143.148 335.658L143.019 336.174Z" fill="#0B0B14" stroke="white"/>
<path d="M60.0962 97.3949L59.8382 98.2979L59.1934 98.9429L57.388 96.7499L55.8404 93.5249L54.6798 90.042L54.1639 86.9459L53.906 85.527L54.5508 84.3659L55.1956 82.8179L55.4535 80.8829V80.2379L55.1956 79.0769L55.3246 78.3029L55.7115 77.5289L56.4852 77.0129L56.8721 76.3679L56.7432 75.3359L56.0984 73.6589V72.3689L56.4852 69.4019L56.6142 67.7249L56.8721 66.9509L57.259 66.3059L58.4197 65.9189L59.0645 66.3059L59.5803 66.9509L60.2251 67.3379H61.2568V67.2089L62.4175 66.5639L63.0623 66.4349L63.965 66.5639L64.7388 66.8219L65.2546 67.3379L67.9628 75.5939L68.8656 77.0129L70.2841 78.3029L72.3475 79.3349L72.2186 80.3669V80.6249V81.2699L71.4448 84.4949L71.3158 84.882L70.929 85.1399L69.2525 86.3009L68.4787 86.9459L60.3541 96.1049L60.2251 96.3629L60.0962 96.6209V97.3949Z" fill="#0B0B14" stroke="white"/>
<path d="M108.199 276.834L106.78 277.221L106.522 277.35V277.221L106.909 276.705L106.007 276.447L104.33 276.705L103.556 276.963L103.169 277.221L102.396 277.479L100.59 276.963L98.6558 276.06L97.6241 275.415L96.8503 274.383L96.3344 273.093L96.2055 271.803V268.062L96.5924 266.901L97.4951 266.385L102.138 266.643L103.685 266.385L104.846 264.966L106.007 264.321L107.554 264.063L108.844 264.321L108.07 262.773L106.264 262.902L104.588 263.805L103.814 264.321L101.88 264.063L101.493 263.031L101.751 261.225V259.29L100.977 258.387L97.2372 255.807L95.9476 254.517L94.529 253.485L92.8525 253.227L91.176 254.259L90.4022 252.711L89.7574 250.389L89.4995 248.067L89.8863 247.164L88.8547 246.777L88.4678 245.874V244.713L88.0809 243.552L87.3071 242.778L86.5333 242.649L86.2754 242.133L86.6623 240.585L87.3071 238.65L87.565 237.618V236.328L87.9519 235.296L89.3705 234.264L89.6284 233.232L89.8863 231.168L91.176 226.395L92.2077 224.46L91.047 224.847L89.6284 224.46L88.5967 223.557L88.0809 222.138L88.3388 220.719L89.1126 219.3L90.0153 218.655L91.176 219.3L91.6918 218.268L92.2077 217.494L92.9814 216.72L93.6262 216.333L91.9497 215.946L90.2732 216.591H89.1126L88.5967 214.527L88.3388 210.915L89.1126 210.012L91.176 209.754V209.238H90.7891L89.6284 208.722L90.2732 207.69L90.0153 207.303L88.5967 206.787L87.823 206.658L87.4361 206.916L87.0492 206.787L86.6623 205.755L86.5333 204.723L87.1782 203.433L87.0492 202.659L86.6623 202.53L86.0175 202.401L85.3727 202.143L85.1148 201.111L84.341 201.627L83.5672 201.756H81.7618L80.988 201.369L81.3749 200.724L82.1486 200.208H82.5355V199.176L82.2776 198.789L81.6328 198.66L80.859 197.886L80.0853 197.499L79.3115 197.757L78.5377 198.144L78.0219 198.66L77.1191 197.628L76.7323 196.725L76.4743 195.693L75.9585 194.661L74.153 192.597L73.7661 191.049L72.6055 188.469L71.9607 187.437L71.4448 185.76L71.5738 185.115H71.8317L72.0896 185.244L72.4765 184.986L73.2503 184.212L74.0241 183.567L74.282 183.18H74.4109L79.9563 181.89L80.7301 181.761L81.6328 182.148L82.2776 184.083L82.6645 184.728H82.9224L83.8252 185.115L84.47 185.631L84.9858 185.889L85.6306 186.018H86.0175L86.4044 185.889L86.6623 185.76L86.7913 185.631L87.823 184.341L88.9836 183.438L89.1126 183.309L89.2415 183.051L89.4995 182.019L89.8863 181.374L95.1738 176.73L95.4317 176.343V176.214L95.5607 175.956L95.8186 174.924L96.3344 173.634L96.5924 173.376L96.8503 173.118L98.6558 171.828L99.0426 171.441L99.3006 171.183L99.4295 170.925L99.5585 170.022L100.203 168.732L100.719 168.345L103.298 167.958L105.104 167.442L105.878 167.184L106.393 166.926L107.425 165.894L107.683 165.507L107.941 164.991L108.07 164.604L108.586 162.411V161.766V161.25V160.605L108.973 157.767L109.36 156.735L109.618 156.348L110.133 155.445L110.52 155.058H110.778H111.036L111.294 155.445L111.681 155.316L112.197 155.058L113.099 154.155L113.615 153.381L114.002 152.349L114.389 151.446V150.93V150.414L114.518 149.124V148.737L114.389 148.479V148.35L114.131 148.221L113.873 148.092L113.615 147.963H113.486L113.228 147.705L113.099 147.318L112.971 146.802L113.099 146.415L113.228 146.286L113.873 145.641L114.389 144.996L114.776 144.48L115.679 143.835L115.937 143.577L116.066 143.319L117.097 139.062V138.675L116.968 138.417L116.839 138.288L116.71 138.159L116.066 137.772L115.808 137.643L115.679 137.127L115.292 136.869L115.163 136.611L114.905 135.321L115.034 135.192L115.163 134.934H115.421H115.679H116.195L116.71 135.708L117.613 137.514L118.129 138.03L118.903 138.288H120.192L120.966 138.417L122.643 139.578L124.061 141.126L125.222 143.061L125.996 144.867L127.285 145.383L129.349 144.738L132.702 142.674L133.862 141.642L134.765 140.352L135.41 138.804L135.668 137.127L136.571 133.773L138.892 132.612L141.729 132.096L144.566 130.806L147.145 129.129L157.591 125.001L159.397 124.614L160.944 125.001L162.105 126.549L162.492 127.452L162.879 127.968L163.395 128.355L164.297 128.484L164.942 128.742V129.387L164.813 130.161L164.684 130.806L166.103 134.16L167.263 135.45L168.811 135.708L169.585 135.321L169.843 135.708L169.714 139.578L169.456 140.61L169.198 140.739L168.424 141.384L167.908 141.9L167.392 142.545L167.263 142.932V143.319V143.835V144.093L167.392 144.867L167.263 145.77L167.392 146.286V146.673L167.65 146.802L167.779 147.06L168.424 147.318L168.553 147.705L168.682 148.092L168.94 148.995V149.382L168.811 149.769L168.553 150.543L168.037 151.575L167.65 152.865L167.521 153.381L167.65 153.639L167.908 153.768H168.166H168.682H168.94L169.198 153.897L169.843 154.284H170.101H170.358L170.616 154.155L171.003 154.026L171.261 153.897H171.39H171.648L172.035 154.155L172.293 154.284H172.551H172.809L173.196 154.542L173.583 155.058L173.711 155.703V156.09V156.477V156.735L173.583 156.993L173.325 157.509L173.196 158.154V158.799L173.454 159.573L173.583 160.089V160.476L173.325 161.25L173.196 163.314L173.583 164.346L173.454 164.733L173.325 165.12L173.067 165.378L172.164 166.023L171.906 166.152L171.648 166.281H171.39H171.003L170.745 166.152H170.487H170.101H169.714L169.198 166.41L168.811 166.668L168.295 167.184L168.037 167.313L167.908 167.184L167.134 166.668L166.619 166.539L165.974 166.41H165.458L165.2 166.281L164.942 166.152L164.426 165.507L163.91 165.378H163.652L163.524 165.507L163.395 165.636L163.137 165.894L162.75 166.281L161.718 166.926L161.331 167.313L161.073 167.7V167.958L161.202 168.216V168.474L161.073 168.861L160.815 169.377L159.526 170.28L159.268 170.538L159.139 171.183L158.881 171.57L158.623 171.699H158.365H157.978H157.462L157.204 171.828L157.075 172.086V172.731L156.946 173.118L156.56 173.892L156.431 174.279V175.44V175.698L156.173 176.085L155.141 177.633L155.012 177.891L154.883 178.149L154.625 179.31V179.955V180.6L154.367 181.116V181.374L154.496 182.019V182.277V182.664L154.367 182.922L154.109 183.438L153.98 183.696V184.083V184.341V184.728L153.851 185.244L152.949 186.792L152.82 187.308L152.691 187.824V188.469L152.562 189.63L152.433 189.888L152.175 190.275L152.046 190.662V190.92L151.917 191.694V192.21L151.659 192.597L151.401 192.855L150.24 193.758L150.885 195.048L151.659 195.822L151.917 196.209L152.433 199.176L152.304 199.563V200.079L151.53 202.272L151.272 202.659L151.014 202.788L150.498 202.917H150.24L149.596 203.046L149.467 203.175L149.209 203.304L148.822 204.078L148.435 204.336V204.594V204.852L148.951 206.013L149.08 206.658V207.045V207.432L148.822 207.561L148.693 207.819L148.435 208.206L148.177 208.98L148.048 209.367L147.79 209.625H147.403L147.145 209.754L146.758 210.012L146.63 210.27V210.528V210.786L146.758 211.044L146.887 211.947V212.85V213.237L146.63 213.495H146.372H146.114H145.856H145.598L145.469 213.624L145.211 213.753H144.953L144.695 213.882H144.437L143.534 215.301L144.953 217.365L145.469 218.397L146.114 220.461L145.082 223.299L144.953 224.46L145.082 224.976L145.469 226.524V226.653L145.598 226.911L146.372 227.556L146.63 228.33L146.758 228.717L146.63 228.975L146.372 229.104L146.114 229.233L145.985 229.491L145.34 230.781L145.082 231.426L144.953 231.813L144.695 232.071L144.566 232.2L144.05 232.716L143.405 233.748L144.437 234.393L145.211 235.683L145.469 235.941H145.856L146.372 235.812L149.725 236.844L150.627 237.102L150.885 237.231L151.143 237.36V237.618V237.876V238.134L150.885 238.65V238.908L150.627 239.424L150.369 239.811L150.24 240.069L150.111 240.327L150.24 240.714L150.498 240.972L151.014 241.23L151.272 241.488L151.53 242.262L151.659 245.229L152.046 246.132L152.433 246.39L152.691 246.777L152.82 247.164V247.422L152.691 247.809L152.562 248.196L152.433 249.099L152.562 249.486L152.691 249.744L152.949 249.873L153.593 250.131L154.625 250.389L154.883 250.518L155.528 250.647L155.915 250.905L156.044 251.163V251.292L155.657 251.679V252.195V253.098L156.173 255.033L156.431 255.807L156.689 256.323H156.946L157.591 255.936H157.72H157.978L158.494 256.323L158.881 256.452L159.526 257.226L161.331 259.677L159.784 264.063L159.526 265.353L159.655 265.611V265.74L160.428 266.514L160.557 267.159L161.073 272.577L161.46 273.867L161.718 274.254L162.234 274.899L162.621 275.544V276.06V276.963L162.363 279.93V280.575L162.492 280.962L162.75 281.091H163.137L163.652 281.349L164.426 282.51L163.137 282.897L162.879 283.155L162.621 283.413L162.363 283.8L159.784 287.154L158.236 288.702L157.591 289.218L156.946 289.476L156.56 289.605H156.173H155.915L155.657 289.476L155.528 289.347L155.399 289.218L155.012 288.444L154.754 288.315L154.625 288.186L154.109 287.928L153.98 287.799L153.722 287.67L153.593 287.412L153.464 287.283L153.336 287.154L153.078 286.896L152.433 286.767L152.304 286.638L152.175 286.509L152.046 286.38L151.659 285.477L151.53 285.219L151.014 284.574L150.756 284.316L150.627 284.187H150.369L149.467 284.058L148.951 283.929L148.435 283.671L148.306 283.413L148.048 283.284L147.79 283.026H147.532L147.403 282.897L147.145 282.768L147.016 282.51L146.887 282.381L146.758 282.123V281.865L146.501 281.478L146.243 281.22L145.469 280.962L144.953 280.833L143.921 280.962L143.405 281.091L143.019 281.22L142.89 281.349L142.761 281.478L142.632 281.736L142.503 281.994L142.374 282.51L142.245 282.768V282.897V283.155L142.374 283.284L142.89 283.8L143.019 284.058L143.277 284.961L143.663 286.251L143.792 287.541L143.148 288.573L141.471 289.476L140.826 289.734L139.021 290.121H137.86H137.602L137.344 289.992L137.086 289.863L136.957 289.605L136.828 289.476L136.699 288.96L136.571 288.702V288.444V288.186V287.799V287.67V287.025L135.926 286.638H135.41L134.378 287.154H134.12L133.862 287.025L133.475 286.509L133.089 286.251L132.702 286.122L132.573 286.251L131.928 286.509L131.412 286.767L131.154 286.638L130.896 286.509L130.38 285.735L130.251 285.477L129.993 285.219H129.736L129.478 285.348L129.349 285.606H129.22H128.962L128.833 285.477L128.704 285.219L128.833 284.703L128.704 284.445L128.059 283.929H127.801L127.543 284.058V284.316L127.414 284.574L127.285 284.832L126.254 285.348H125.867L125.48 285.09H125.222H124.835L124.319 285.606H124.19V285.477L124.319 284.961V284.703V284.445V284.316L124.448 284.187H124.835L125.48 284.316L125.738 284.187L125.867 284.058V283.929L125.738 283.671L125.48 283.413L125.222 283.155V283.026V282.51L125.093 282.252L124.835 282.123L124.706 282.252L124.577 282.51L124.448 282.639L124.19 282.768L124.061 282.897L123.674 283.155L123.416 283.284L123.158 283.8L122.901 283.929H122.772V283.671L122.643 283.413V283.155V282.639V281.865L122.514 281.478L122.256 281.349L122.127 281.478L121.353 281.607H120.837L120.579 281.478L120.321 281.22L120.192 280.833L119.934 280.575L119.677 280.446H119.419L119.29 280.575L118.903 280.704L118.774 280.833H118.645H118.129H118L117.742 280.962L117.613 281.091L117.484 281.349V281.607L117.355 282.123L117.226 282.252L116.968 282.381L116.452 282.51H116.195L115.937 282.381L115.808 282.252L115.679 281.994V281.736V281.478L115.808 280.962L116.066 280.575L116.324 280.188L116.452 279.93L116.324 279.672L116.066 279.285L114.131 278.124L114.002 277.995V277.737V277.479L114.131 277.221V277.092L114.26 276.834V276.447L114.002 276.06L113.744 275.931H113.486H112.971L110.778 276.576L108.199 276.834Z" fill="#0B0B14" stroke="white"/>
<path d="M79.9563 181.89L74.4109 183.18H74.2819L74.6688 182.664L75.1847 180.213L76.3453 177.891L76.4743 176.472L76.3453 175.569L75.5716 174.15L75.4426 173.634L75.5716 172.731L76.3453 171.441L76.4743 170.667L76.2164 169.635L74.5399 166.281L72.9923 164.217L72.6054 163.185L72.4765 161.508L72.9923 155.187L72.4765 153.51L70.8 150.543L70.671 150.027L81.3748 150.672L82.5355 150.93L83.8251 151.446L83.4382 152.349L83.3093 152.994L83.1803 157.38L84.4699 172.602L85.7595 181.116V181.503L85.6306 181.761L85.5016 182.019L85.2437 182.277L85.1147 182.406H84.8568L83.9541 182.535L81.6328 182.148L80.73 181.761L79.9563 181.89ZM68.0918 159.702L69.1235 160.347L69.8972 161.121L68.4787 163.572L68.2207 166.41L67.9628 167.829L66.1574 171.183L65.8994 172.473L61.9016 171.699L58.9355 171.828L58.8065 171.957V172.086L58.5486 172.215L58.1617 172.086L57.9038 171.699L57.7748 171.312L58.8065 170.796L59.0645 169.764L58.6776 165.894L58.8065 162.411L58.6776 161.766L58.2907 161.121L57.9038 160.734L57.7748 160.347L57.9038 159.702L58.1617 159.057L58.2907 158.541L57.7748 158.025L58.6776 157.767L59.0645 158.154L59.4513 158.799L60.0962 159.186L60.741 158.928L61.1278 158.412L61.5147 157.896L61.9016 157.638L63.3202 157.251L64.7388 157.38L66.1574 157.767L67.447 158.67L68.0918 159.702Z" fill="#0B0B14" stroke="white"/>
<path d="M297.515 252.84L297.902 253.098L298.289 253.227L298.16 253.356L297.515 253.485L296.999 254.001L295.451 255.936L294.807 257.097L294.678 258.387L295.193 260.709L297.902 267.546L297.644 269.352L295.967 268.32L294.678 270.513L293.904 273.738L293.646 276.189L293.775 278.898L293.517 280.317H292.227L291.454 281.22L290.938 282.51L290.551 283.542L290.68 284.961L291.067 286.251L293.904 292.443L294.162 293.346L295.451 295.152L298.031 297.603L299.707 300.054L298.675 302.247L301.126 301.731L297.644 309.342L297.257 312.309L298.417 321.468L298.933 322.887L299.191 324.435L297.644 342.237L298.16 345.204L300.481 350.364L303.963 355.008L312.732 363.522L312.861 363.651L312.603 364.167L311.958 365.199L311.829 365.328L310.153 366.102L309.895 366.489V366.876L310.024 367.005L310.153 367.134L310.798 367.521L310.927 367.65L311.056 367.779L311.314 368.037L311.443 368.295L311.572 368.553V368.682V368.94L311.443 369.456L311.314 369.714L311.185 369.972L311.056 370.101L310.798 370.359L310.669 370.617L310.54 370.746V371.004L310.927 372.036V372.165V372.294L310.798 372.423L310.411 372.939L310.282 373.197L310.024 373.713V373.842V373.971V374.1L310.153 374.358L310.282 374.487L310.54 374.616L311.185 374.745L311.443 374.874L311.701 375.003L311.958 375.39L312.216 375.777L312.345 376.164L312.474 376.68V376.938V377.454V377.712L312.345 377.97L311.572 379.002L311.443 379.26L311.314 379.389V379.647L311.443 379.905V380.163L311.185 380.292L310.54 380.034L300.094 373.842L299.836 373.584L299.449 373.068L298.804 372.423L298.546 372.036L294.291 370.488L293.388 369.843L292.485 369.327H291.454L288.358 369.972L277.268 374.1H277.01L276.623 373.971L265.016 369.198L262.437 367.134L251.991 354.492L250.96 353.976L247.091 352.299L243.867 351.267L243.093 347.784L242.577 347.01L242.448 347.139L242.19 347.268L242.061 347.397L241.803 347.526H241.545H241.416L241.158 347.397L226.328 337.206L224.136 334.497L224.007 334.239L221.04 331.014L220.525 330.756L214.979 329.853L214.334 329.724L205.178 326.757L202.212 325.209L201.567 325.08H201.051L200.922 325.209L200.793 325.467L200.536 325.596L199.762 325.725H199.504L199.375 325.854L198.73 326.241L198.085 326.628L197.44 326.757H197.054L196.796 326.628L196.667 326.37V326.112V325.209L196.538 324.951V324.693L196.409 324.564L196.151 323.661L195.893 323.403L195.506 323.016L195.248 322.758H194.99L193.958 322.887L192.669 322.758L192.153 322.629H191.895L191.637 322.371L191.508 322.242L191.121 321.855L190.734 321.726L190.605 321.597L190.476 321.339L190.348 321.081V320.823L190.09 320.307L189.574 319.791L188.155 318.888L187.51 318.63L186.995 318.501L186.866 318.759L186.737 318.888V319.146L186.608 319.404L186.479 319.662L186.35 319.791L186.092 319.92L185.705 320.178L183.77 319.92H183.384L180.675 318.501L179.902 318.372L179.644 318.243L179.386 318.114L174.614 311.922L175.388 309.858L176.033 308.697L176.162 308.439V308.052L175.646 305.601L175.517 305.343L175.388 304.956L174.872 304.182L174.743 303.924L174.614 303.666V303.408V303.15V302.634L174.872 301.989L176.162 299.538L176.42 299.409L176.549 299.28L177.064 299.151L177.322 299.022L177.451 298.893L177.58 298.635L177.709 298.248L178.225 296.055V295.41L177.451 294.249L176.42 292.83L176.162 292.056L176.033 291.798L175.904 291.54L175.775 291.411L175.517 291.024L175.388 290.766L175.13 290.121L174.614 289.734L172.164 288.315L170.745 287.67H170.358H169.843H169.585L169.198 287.541L167.908 286.896L167.521 286.638L166.49 285.864L164.426 282.51L163.652 281.349L163.137 281.091H162.75L162.492 280.962L162.363 280.575V279.93L162.621 276.963V276.06V275.544L162.234 274.899L161.718 274.254L161.46 273.867L161.073 272.577L160.557 267.159L160.428 266.514L159.655 265.74V265.611L159.526 265.353L159.784 264.063L161.331 259.677L159.526 257.226L158.881 256.452L158.494 256.323L157.978 255.936H157.72H157.591L156.946 256.323H156.689L156.431 255.807L156.173 255.033L155.657 253.098V252.195V251.679L156.044 251.292V251.163L155.915 250.905L155.528 250.647L154.883 250.518L154.625 250.389L153.593 250.131L152.949 249.873L152.691 249.744L152.562 249.486L152.433 249.099L152.562 248.196L152.691 247.809L152.82 247.422V247.164L152.691 246.777L152.433 246.39L152.046 246.132L151.659 245.229L151.53 242.262L151.272 241.488L151.014 241.23L150.498 240.972L150.24 240.714L150.111 240.327L150.24 240.069L150.369 239.811L150.627 239.424L150.885 238.908V238.65L151.143 238.263V238.005V237.747V237.489L150.885 237.36L150.627 237.231L149.725 236.973L146.372 235.941L145.856 236.07H145.469L145.211 235.812L144.437 234.522L143.405 233.877L144.05 232.845L144.566 232.329L144.695 232.2L144.953 231.942L145.082 231.555L145.34 230.91L145.985 229.62L146.114 229.362L146.372 229.233L146.63 229.104L146.758 228.846L146.63 228.459L146.372 227.685L145.598 227.04L145.469 226.782V226.653L145.082 225.105L144.953 224.589L145.082 223.428L146.114 220.59L149.08 221.235L149.983 221.622L151.014 222.525L151.272 222.783L152.175 223.557L153.078 223.686H153.593L153.722 223.557L153.851 223.17V222.912V222.654L153.98 222.396L154.238 222.138L155.141 222.009L155.399 221.88L155.786 221.622L156.689 221.493L157.591 221.622L158.107 221.751L158.365 222.009L158.623 222.138L158.752 222.396L159.139 222.525L160.17 222.912L160.557 223.041L161.073 223.686L161.847 224.331L163.008 224.202L163.523 224.46L163.91 224.718H164.297L165.974 224.331L166.49 224.073L166.876 223.815L167.392 223.299L167.521 222.912L167.908 222.525L168.553 222.138L170.745 220.848L171.261 220.59L171.906 219.816L172.293 219.687L173.969 219.3L174.485 219.042L174.743 218.913L174.872 218.655L175.001 218.397L175.259 217.365L175.388 216.849L175.259 215.301L175.517 213.495L175.646 213.237L175.517 211.431V210.915L175.775 210.27L176.033 209.883L176.291 209.625L176.678 209.496H177.322H177.709H178.096L178.225 209.625L178.354 209.883L178.483 210.141L178.612 210.399V210.915V211.56V211.947L178.741 212.205L178.87 212.334L178.999 212.463H179.386L179.902 212.592H180.16L180.289 212.85L180.546 212.979L180.675 213.237V213.366L180.804 213.753V214.011V214.269L180.933 214.527L181.191 214.656H181.578L181.836 214.785L181.965 214.914L182.352 215.172L183.642 215.946L183.77 216.075L184.028 216.333V216.462L184.157 216.72V216.978V217.365L184.028 217.881V218.139V218.397L184.415 219.3L184.544 219.558L184.673 219.816L184.931 219.945L185.447 220.203L185.705 220.074L185.834 219.945V219.042L185.963 218.784V218.526L186.221 218.01L186.608 217.494L187.51 216.72L187.639 216.462L187.897 216.075L188.542 212.721L188.671 212.205V211.56L188.542 211.302V211.044V210.657L188.671 210.27L189.187 209.625L189.574 209.496H189.832L190.09 209.883L190.219 210.141L190.476 210.27H190.992L191.25 210.012L191.637 209.625L191.895 209.496H192.024L192.153 209.625L192.411 209.754L193.056 210.657L193.314 210.786H193.572H193.83L194.087 210.915H194.216L194.603 211.302L195.119 211.56H195.893L199.891 209.883L200.536 209.754L200.664 209.883L200.793 210.141L201.309 211.173V211.431V212.076V212.334L201.438 212.592L201.567 212.721L204.275 214.785L204.662 215.301L204.791 215.43L204.92 215.688V215.946L205.049 216.333V216.591L205.178 216.72L205.307 216.978L205.565 217.107H205.823L205.952 217.236L206.21 217.365L206.339 217.623L206.468 218.01L206.597 218.268L206.984 218.397L207.242 218.526L208.66 218.784L209.434 217.752L209.692 217.623L210.208 217.365L211.755 216.978L212.4 216.849H212.787L214.205 217.752L214.592 218.01L215.108 218.139L216.398 218.268H216.914L217.172 218.139L217.687 217.236L217.816 216.978L218.461 216.333L219.364 215.301L219.493 215.043V214.785V214.527L219.364 214.398L219.235 214.14L219.364 213.753L220.009 213.237L220.654 212.979L221.685 212.721H222.072L222.459 212.85L222.975 212.979L223.362 213.108H223.749H224.393H224.78L225.167 213.237L225.296 213.366L225.683 214.011L226.07 214.269L227.36 215.043L228.004 215.559L228.262 215.817L228.649 215.946L229.294 216.075H229.681L229.939 215.946L230.455 215.559L230.97 215.172L231.099 215.043L231.486 214.785L231.615 214.656L231.744 214.398L232.131 213.882L232.389 213.624L232.647 213.495H232.905L233.034 213.624L233.292 213.882L233.421 214.011L233.679 214.14L233.937 214.269L235.097 214.398L236 214.527H236.387L236.516 214.398L236.645 214.14V213.882V213.237L236.387 212.076V211.947L236.129 211.431L236 211.302V211.044V210.786L236.129 210.528L236.387 210.141L236.516 209.883V209.625V209.238V208.98L236.645 208.593L237.032 208.206L237.29 208.077H237.548L237.805 208.206L238.579 208.851L239.224 208.98L240.643 209.109L242.19 212.076L242.835 212.85L243.996 213.495L245.285 214.527L246.059 214.914L247.478 215.301L247.864 215.43L248.38 215.559L249.67 215.688H250.96L253.023 215.559L254.184 215.817L255.473 217.107L256.118 217.881L256.247 218.139L256.505 218.655L256.634 219.171L256.892 220.074V220.461L256.763 220.848L256.505 220.977L256.376 221.235L256.247 222.912V223.17L256.118 223.428L255.989 223.557L255.731 223.686L255.602 223.815L254.828 224.073L254.57 224.202L254.442 224.46L254.184 224.718L254.055 225.363V226.008L254.313 226.653L254.57 228.072L254.828 228.588L255.086 228.975L255.731 229.362L256.247 229.878L256.763 230.652L257.021 230.91L257.279 231.039L258.31 231.168H258.568H258.697H259.342H259.6H260.503L260.761 231.297L261.019 231.426L261.148 231.555L261.663 231.942L261.792 232.071H262.05L262.308 231.942V231.684L262.437 231.168L262.566 230.91L262.695 230.781L262.953 230.652L263.082 230.523H263.469L263.856 230.652L266.306 232.974L266.435 233.361L266.564 233.619L266.693 234.393L266.822 234.909L266.951 235.167L267.467 235.296V236.199L267.08 237.231L266.564 238.263L266.306 238.908V239.295L266.693 240.456V240.714L266.435 240.972H265.919H265.79L265.145 240.843H264.887H264.501L264.114 240.972L263.727 241.23L263.082 241.746L262.695 242.133L262.566 242.52L262.179 243.681L261.921 244.068L261.277 244.713L260.89 245.229L260.761 245.616V245.874L260.503 247.164L259.858 250.002L259.987 251.292V251.937L259.729 252.969L259.6 253.485L259.471 253.743L258.568 255.033L258.439 255.291V255.678L259.213 256.839L259.471 257.226L259.729 257.355L259.858 257.484L260.116 257.613L260.374 257.742L261.148 257.613L265.145 255.936L266.177 255.807L266.564 256.065L266.822 256.194L266.951 256.323L267.983 256.71L270.046 257.097L270.433 257.355L270.691 257.613L271.078 257.871L271.593 258.258L274.173 259.161L274.302 259.29L274.56 259.419L274.689 259.548L274.817 259.806L274.946 260.064L275.075 260.322L275.204 260.451L275.462 260.58L275.591 260.709L275.849 261.225L276.107 261.354L276.494 261.612L277.01 261.87L278.686 263.031L279.202 263.16H279.46L279.976 262.902L280.363 262.773L280.621 262.902L280.75 263.16V263.676L280.879 263.934L281.137 264.192L281.395 264.579L281.652 264.708H281.91L282.168 264.45L282.426 264.321H283.071L283.329 264.45L283.458 264.708L283.587 265.74V265.869L283.716 266.256L283.974 266.643L284.619 267.417L285.779 268.578L286.037 268.965L286.166 269.223V269.481V269.739L286.037 270.255V270.513L286.166 270.9L287.069 271.674L287.327 272.061L287.972 273.738L288.101 273.996L288.358 274.383L288.874 274.77L289.261 274.899L289.39 274.77V274.512L289.261 272.835V272.706L289.39 272.448L289.519 272.319L289.777 272.19L289.906 271.932L290.293 271.545L290.551 271.029L290.809 270.513L290.938 269.739V269.481V269.094V268.836L290.293 266.901L289.648 265.74V265.611L289.519 265.224L289.39 264.966V264.708L289.519 264.192L289.648 263.676L289.777 263.289V263.031L289.648 262.386L289.519 261.999L289.39 261.741L289.261 261.612L289.003 261.483L288.616 261.225L288.358 261.096L288.229 260.838L288.101 260.709V260.451L287.972 259.806V259.548V259.29L288.229 257.613L288.358 257.355L288.487 257.097L288.874 256.839L289.003 256.71L289.261 256.194L289.39 255.936V255.678L289.519 255.162V254.517L289.39 253.485V253.098L289.132 251.679V251.421H289.261L289.906 251.679L290.164 251.808L290.293 251.937L290.422 252.066L290.551 252.195L290.809 252.324L291.067 252.453L296.483 252.582L297.515 252.84ZM348.584 355.911L348.713 355.266L348.97 354.75L350.002 354.363L350.389 353.976L351.163 352.815V351.783L350.905 350.622L350.647 349.461L350.776 348.687L351.292 347.913L351.937 347.397L352.71 347.526L353.097 347.913L353.226 348.3V349.203L353.484 349.719L354.387 351.138L354.903 352.041L355.805 355.266L355.934 358.878L355.805 359.781L354.903 360.426L353.484 360.813L352.066 360.942L350.905 360.555L349.486 359.007L348.97 358.104V357.459V357.072L348.584 355.911Z" fill="#0B0B14" stroke="white"/>
<path d="M194.087 382.356L193.443 383.001L191.121 384.291V384.033L189.961 383.775L188.671 383.259L186.608 381.969L185.189 382.872L182.868 383.001L181.965 384.033L181.449 382.227L181.32 379.905L180.933 377.841L179.773 376.938L179.257 376.68L178.483 376.164L177.451 375.003L175.904 370.617L175.388 369.843L174.356 369.456L171.39 369.198L171.519 367.392L172.035 366.489L172.422 365.844L172.551 365.328L172.68 364.038L172.809 363.651L173.454 362.619L175.13 358.749L175.001 355.782L174.227 351.267V350.235V349.59L174.356 349.461L175.388 349.332H176.033L178.225 349.461L180.933 349.977H181.191L181.707 349.848L182.223 349.59L183.126 348.945L183.513 348.558L183.77 348.171L183.899 347.397L184.157 345.591L184.544 344.301L184.802 343.914L184.931 343.656L185.06 343.398L186.479 342.495L186.737 342.237L186.866 341.979L186.995 341.463V341.076V340.56L187.123 339.528L187.51 338.625L187.639 338.109L187.897 337.851L188.026 337.722L188.671 337.464L189.058 337.206L189.187 336.948L189.316 336.69L189.187 336.174L188.929 335.142L188.8 333.981L188.671 332.82L188.8 331.788L189.187 329.466L189.058 328.95V328.692L188.929 328.176L188.8 327.918L188.671 327.66L188.155 326.886L187.897 326.241V325.854L187.768 325.596L188.026 323.661V323.403L187.897 323.145L187.768 322.629L187.252 321.726L186.995 321.081L186.737 320.694L186.608 320.436L186.221 320.307L185.705 320.178L186.092 319.92L186.35 319.791L186.479 319.662L186.608 319.404L186.737 319.146V318.888L186.866 318.759L186.995 318.501L187.51 318.63L188.155 318.888L189.574 319.791L190.09 320.307L190.348 320.823V321.081L190.476 321.339L190.605 321.597L190.734 321.726L191.121 321.855L191.508 322.242L191.637 322.371L191.895 322.629H192.153L192.669 322.758L193.958 322.887L194.99 322.758H195.248L195.506 323.016L195.893 323.403L196.151 323.661L196.409 324.564L196.538 324.693V324.951L196.667 325.209V326.112V326.37L196.796 326.628L197.054 326.757H197.44L198.085 326.628L198.73 326.241L199.375 325.854L199.504 325.725H199.762L200.535 325.596L200.793 325.467L200.922 325.209L201.051 325.08H201.567L202.212 325.209L205.178 326.757L214.334 329.724L214.979 329.853L220.525 330.756L221.04 331.014L224.007 334.239L224.136 334.497L226.328 337.206L241.158 347.397L241.416 347.526H241.545H241.803L242.061 347.397L242.19 347.268L242.448 347.139L242.577 347.01L243.093 347.784L243.867 351.267L243.48 353.46L239.353 364.425L238.708 366.36V366.747V367.134L238.966 367.779L239.224 368.295V368.553V368.811L238.708 369.327L238.45 369.585L238.192 370.101L237.805 371.133L237.548 371.778L237.419 372.552L237.548 372.939V373.326L237.676 373.713L237.805 374.229V374.616L237.419 375.519L237.29 375.906L237.419 376.809L237.676 377.454V377.712V378.099L237.419 378.357L236.516 379.518L236.258 380.163L236.129 382.098L225.554 379.647L224.522 379.002L220.267 377.196L217.945 377.067L217.172 377.196L212.271 378.873L211.626 379.002L208.66 378.357L206.726 377.583L205.436 376.938L205.178 376.809H205.049L204.791 377.067L203.631 378.357L203.373 378.486L202.986 378.615L199.891 379.518H199.375L197.956 379.131H197.698L197.44 379.26L197.311 379.389V379.518V380.292L197.182 380.55H197.054L196.925 380.808L196.667 380.937L196.409 381.582L196.151 381.711H196.022L195.764 381.582L195.635 381.324L195.377 380.808L194.087 382.356Z" fill="#0B0B14" stroke="white"/>
<path d="M229.939 403.899L229.165 404.286L228.004 406.221L217.687 402.093L205.823 397.191L203.373 395.772L201.309 394.095L195.764 388.032L194.861 387.645L193.314 387.258L191.895 386.484L190.992 385.323L191.121 384.291L193.443 383.001L194.087 382.356L195.377 380.808L195.635 381.324L195.764 381.582L196.022 381.711H196.151L196.409 381.582L196.667 380.937L196.925 380.808L197.054 380.55H197.183L197.311 380.292V379.518V379.389L197.44 379.26L197.698 379.131H197.956L199.375 379.518H199.891L202.986 378.615L203.373 378.486L203.631 378.357L204.791 377.067L205.049 376.809H205.178L205.436 376.938L206.726 377.583L208.66 378.357L211.626 379.002L212.271 378.873L217.172 377.196L217.945 377.067L220.267 377.196L224.522 379.002L225.554 379.647L236.129 382.098L234.581 383.13L232.776 383.904L232.26 384.291L230.713 386.226L230.455 386.871L230.197 387.387L230.326 387.645L230.455 388.419V388.677L230.326 389.193L228.907 393.063L228.778 393.966V394.224V394.482L228.907 394.998V395.385V395.901L228.778 396.159L228.649 396.417L227.489 397.449L227.36 397.836V398.094L227.618 398.481L227.746 398.997L227.875 399.126L228.133 399.255L228.649 399.384L229.81 399.9L230.197 400.158H230.455L230.971 400.287L231.228 400.416L231.357 400.545L231.486 400.932L231.615 401.577L231.486 403.125L231.228 403.641L230.971 404.028H230.713L229.939 403.899Z" fill="#0B0B14" stroke="white"/>
<path d="M169.714 139.578L169.843 135.708L169.585 135.321L170.874 134.16L171.777 133.902L172.809 134.16L173.325 134.934L173.84 135.837L174.485 136.611L176.033 137.385L177.193 137.256L178.096 136.353L178.612 134.805L179.128 134.418L181.191 132.999L181.707 132.354L181.965 131.709L182.352 131.064L183.126 130.548L185.447 128.484L185.963 125.646V122.55L187.124 119.454L188.929 117.261L194.345 113.133L196.409 111.198L197.183 108.747L196.796 103.071L197.311 99.2009L199.246 100.491L203.115 103.2L204.017 103.587L205.694 103.2L206.081 102.297L205.436 101.652L204.275 102.039L205.049 100.878L206.597 101.007L215.237 104.103L216.914 105.135L220.009 108.36L228.778 125.646L230.326 127.581L231.873 128.871L231.744 129L229.036 132.354L223.362 137.643L220.783 140.352L220.396 141.255L221.427 145.383L221.556 145.899L221.814 146.544V147.06L221.685 148.221V152.22V152.478L221.556 152.607L220.911 152.994V153.768L221.427 158.154V159.315L221.298 159.96L221.04 160.089V160.347L221.169 160.734L222.33 162.282L224.007 163.572L224.264 163.959L224.393 164.604L224.007 166.539L223.104 168.345V168.603L222.846 170.28L222.717 174.537L222.846 175.698V175.956V176.214L222.717 176.73L222.33 178.02V178.278L222.459 178.536L222.975 178.794L224.007 179.052L224.264 179.181L224.522 179.439L224.78 179.568L225.038 179.697H225.425H225.683L225.941 179.826L226.328 180.213L226.844 180.471L227.102 180.6L228.133 181.761L228.391 182.019L228.778 182.277H229.036L229.165 182.406L229.423 182.664L230.197 183.438L230.713 183.825L230.842 184.083L230.713 184.341L230.455 184.857L230.326 184.986L230.197 185.244V185.502L230.068 185.76H229.939L229.294 185.889L229.165 186.018L229.036 186.276V186.663L229.939 190.275L229.81 190.662L229.681 190.92H229.423L229.165 191.049L229.036 191.178L228.907 191.436L228.778 191.565V191.694V191.823V191.952L228.907 192.21L229.036 192.855L229.681 194.919L229.81 196.08L229.681 196.725L229.552 198.144L229.681 198.402L230.068 198.789L230.842 199.176L231.228 199.047L231.486 198.918L231.615 198.789L231.744 198.66L232.002 198.531H232.26L232.518 198.66L234.323 199.434L238.063 202.014L238.321 202.143L238.837 202.272L239.095 202.53L239.224 202.917L239.353 203.949L239.482 204.594L239.869 205.11L240.127 205.368L240.256 205.755L240.901 207.303L241.029 207.819L240.643 208.98L239.224 208.851L238.579 208.722L237.805 208.077L237.548 207.948H237.29L237.032 208.077L236.645 208.464L236.516 208.851V209.109V209.496V209.754L236.387 210.012L236.129 210.399L236 210.657V210.915V211.173L236.129 211.302L236.387 211.818V211.947L236.645 213.108V213.753V214.011L236.516 214.269L236.387 214.398H236L235.097 214.269L233.937 214.14L233.679 214.011L233.421 213.882L233.292 213.753L233.034 213.495L232.905 213.366H232.647L232.389 213.495L232.131 213.753L231.744 214.269L231.615 214.527L231.486 214.656L231.099 214.914L230.97 215.043L230.455 215.43L229.939 215.817L229.681 215.946H229.294L228.649 215.817L228.262 215.688L228.004 215.43L227.36 214.914L226.07 214.14L225.683 213.882L225.296 213.237L225.167 213.108L224.78 212.979H224.393H223.749H223.362L222.975 212.85L222.459 212.721L222.072 212.592H221.685L220.654 212.85L220.009 213.108L219.364 213.624L219.235 214.14L219.364 214.398L219.493 214.527V214.785V215.043L219.364 215.301L218.461 216.333L217.816 216.978L217.687 217.236L217.172 218.139L216.914 218.268H216.398L215.108 218.139L214.592 218.01L214.205 217.752L212.787 216.849H212.4L211.755 216.978L210.208 217.365L209.692 217.623L209.434 217.752L208.66 218.784L207.242 218.526L206.984 218.397L206.597 218.268L206.468 218.01L206.339 217.623L206.21 217.365L205.952 217.236L205.823 217.107H205.565L205.307 216.978L205.178 216.72L205.049 216.591V216.333L204.92 215.946V215.688L204.791 215.43L204.662 215.301L204.275 214.785L201.567 212.721L201.438 212.592L201.309 212.334V212.076V211.431V211.173L200.793 210.141L200.664 209.883L200.536 209.754L199.891 209.883L195.893 211.56H195.119L194.603 211.302L194.216 210.915H194.087L193.83 210.786H193.572H193.314L193.056 210.657L192.411 209.754L192.153 209.625L192.024 209.496H191.895L191.637 209.625L191.25 210.012L190.992 210.27H190.476L190.219 210.141L190.09 209.883L189.832 209.496H189.574L189.187 209.625L188.671 210.27L188.542 210.657V211.044V211.302L188.671 211.56V212.205L188.542 212.721L187.897 216.075L187.639 216.462L187.51 216.72L186.608 217.494L186.221 218.01L185.963 218.526V218.784L185.834 219.042V219.945L185.705 220.074L185.447 220.203L184.931 219.945L184.673 219.816L184.544 219.558L184.415 219.3L184.028 218.397V218.139V217.881L184.157 217.365V216.978V216.72L184.028 216.462V216.333L183.77 216.075L183.642 215.946L182.352 215.172L181.965 214.914L181.836 214.785L181.578 214.656H181.191L180.933 214.527L180.804 214.269V214.011V213.753L180.675 213.366V213.237L180.546 212.979L180.289 212.85L180.16 212.592H179.902L179.386 212.463H178.999L178.87 212.334L178.741 212.205L178.612 211.947V211.56V210.915V210.399L178.483 210.141L178.354 209.883L178.225 209.625L178.096 209.496H177.709H177.322H176.678L176.291 209.625L176.033 209.883L175.775 210.27L175.517 210.915V211.431L175.646 213.237L175.517 213.495L175.259 215.301L175.388 216.849L175.259 217.365L175.001 218.397L174.872 218.655L174.743 218.913L174.485 219.042L173.969 219.3L172.293 219.687L171.906 219.816L171.261 220.59L170.745 220.848L168.553 222.138L167.908 222.525L167.521 222.912L167.392 223.299L166.876 223.815L166.49 224.073L165.974 224.331L164.297 224.718H163.91L163.523 224.46L163.008 224.202L161.847 224.331L161.073 223.686L160.557 223.041L160.17 222.912L159.139 222.525L158.752 222.396L158.623 222.138L158.365 222.009L158.107 221.751L157.591 221.622L156.689 221.493L155.786 221.622L155.399 221.88L155.141 222.009L154.238 222.138L153.98 222.396L153.851 222.654V222.912V223.17L153.722 223.557L153.593 223.686H153.078L152.175 223.557L151.272 222.783L151.014 222.525L149.983 221.622L149.08 221.235L146.114 220.59L145.469 218.526L144.953 217.494L143.534 215.43L144.437 214.011H144.695L144.953 213.882H145.211L145.469 213.753L145.598 213.624H145.856H146.114H146.372H146.629L146.887 213.366V212.979V212.076L146.758 211.173L146.629 210.915V210.657V210.399L146.758 210.141L147.145 209.883L147.403 209.754H147.79L148.048 209.496L148.177 209.109L148.435 208.335L148.693 207.948L148.822 207.69L149.08 207.561V207.174V206.787L148.951 206.142L148.435 204.981V204.723V204.465L148.822 204.207L149.209 203.433L149.467 203.304L149.596 203.175L150.24 203.046H150.498L151.014 202.917L151.272 202.788L151.53 202.401L152.304 200.208V199.692L152.433 199.305L151.917 196.338L151.659 195.951L150.885 195.177L150.24 193.887L151.401 192.984L151.659 192.726L151.917 192.339V191.823L152.046 191.049V190.791L152.175 190.404L152.433 190.017L152.562 189.759L152.691 188.598V187.953L152.82 187.437L152.949 186.921L153.851 185.373L153.98 184.857V184.47V184.212V183.825L154.109 183.567L154.367 183.051L154.496 182.793V182.406V182.148L154.367 181.503V181.245L154.625 180.729V180.084V179.439L154.883 178.278L155.012 178.02L155.141 177.762L156.173 176.214L156.431 175.827V175.569V174.408L156.56 174.021L156.946 173.247L157.075 172.86V172.215L157.204 171.957L157.462 171.828H157.978H158.365H158.623L158.881 171.699L159.139 171.312L159.268 170.667L159.526 170.409L160.815 169.506L161.073 168.99L161.202 168.603V168.345L161.073 168.087V167.829L161.331 167.442L161.718 167.055L162.75 166.41L163.137 166.023L163.395 165.765L163.523 165.636L163.652 165.507H163.91L164.426 165.636L164.942 166.281L165.2 166.41L165.458 166.539H165.974L166.619 166.668L167.134 166.797L167.908 167.313L168.037 167.442L168.295 167.313L168.811 166.797L169.198 166.539L169.714 166.281H170.101H170.487H170.745L171.003 166.41H171.39H171.648L171.906 166.281L172.164 166.152L173.067 165.507L173.325 165.249L173.454 164.862L173.583 164.475L173.196 163.443L173.325 161.379L173.583 160.605V160.218L173.454 159.702L173.196 158.928V158.283L173.325 157.638L173.583 157.122L173.711 156.864V156.606V156.09V155.703L173.583 155.058L173.196 154.542L172.809 154.284H172.551H172.293L172.035 154.155L171.648 153.897H171.39H171.261L171.003 154.026L170.616 154.155L170.358 154.284H170.101H169.843L169.198 153.897L168.94 153.768H168.682H168.166H167.908L167.65 153.639L167.521 153.381L167.65 152.865L168.037 151.575L168.553 150.543L168.811 149.769L168.94 149.382V148.995L168.682 148.092L168.553 147.705L168.424 147.318L167.779 147.06L167.65 146.802L167.392 146.673V146.286L167.263 145.77L167.392 144.867L167.263 144.093V143.835V143.319V142.932L167.392 142.545L167.908 141.9L168.424 141.384L169.198 140.739L169.456 140.61L169.714 139.578Z" fill="#0B0B14" stroke="white"/>
<path d="M82.5355 150.93L81.3749 150.672L70.671 150.027L70.4131 148.866L69.8973 142.674L70.5421 142.932L71.4448 143.19L72.3475 143.061L72.9923 142.674V141.9L72.4765 141.513L71.8317 141.126L71.4448 140.868L72.2186 132.225L70.2841 117.39L69.6393 116.1L68.6076 114.681L67.7049 113.004L66.4153 109.779L63.7071 104.877L62.8044 101.91L61.6437 100.749L59.3224 99.072L59.1934 98.943L59.8383 98.298L60.0962 97.395V96.621L60.2251 96.363L60.3541 96.105L68.4787 86.946L69.2525 86.301L70.929 85.14L71.3158 84.882L71.4448 84.495L72.2186 81.27V80.625V80.367L72.3475 79.335L73.1213 79.593L74.6689 80.109L75.9585 80.238L77.8929 79.98L78.9246 80.238L81.3749 82.044L82.6645 82.56L87.1781 83.85L89.6284 85.011L91.047 85.398L92.3366 85.14L97.1082 81.786H98.2688L98.3978 82.173V83.85L98.6557 84.495L99.3005 85.011H99.9454H100.719L101.493 85.14L103.169 86.172L103.943 87.591L104.072 91.074L104.33 91.848L104.588 92.751L105.491 94.17L105.62 94.815L105.491 95.46L105.233 96.234L105.104 96.879V98.943L105.362 99.588L105.878 100.62H106.264L106.651 100.104L107.554 99.846L108.586 99.975L111.552 100.749L112.97 100.362L114.905 98.298L116.323 98.04L118.774 99.975L119.934 100.362L123.287 99.588L124.19 99.975L124.706 100.878L124.964 102.426L124.835 104.232L124.061 104.877L123.158 105.264L122.127 106.554V108.231L123.287 109.263L124.706 110.295L125.222 111.843L124.835 114.681L124.706 118.938L124.19 121.26L124.061 122.679L123.416 124.098L122.127 124.485L120.579 124.872L119.419 125.646L116.323 131.709L115.808 132.612L115.679 133.386L115.808 134.289L116.195 134.934H115.679H115.421H115.163L115.034 135.192L114.905 135.321L115.163 136.611L115.292 136.869L115.679 137.127L115.808 137.643L116.066 137.772L116.71 138.159L116.839 138.288L116.968 138.417L117.097 138.675V139.062L116.066 143.319L115.937 143.577L115.679 143.835L114.776 144.48L114.389 144.867L113.873 145.512L113.228 146.157L113.099 146.286L112.97 146.673L113.099 147.189L113.228 147.576L113.486 147.834H113.615L113.873 147.963L114.131 148.092L114.389 148.221V148.479L114.518 148.737V149.124L114.389 150.414V150.93V151.317L114.002 152.22L113.615 153.252L113.099 154.026L112.197 154.929L111.681 155.187L111.294 155.316L111.036 154.929H110.778H110.52L110.133 155.316L109.617 156.219L109.36 156.606L108.973 157.638L108.586 160.476V161.121V161.637V162.282L108.07 164.475L107.941 164.862L107.683 165.378L107.425 165.765L106.393 166.797L105.878 167.055L105.104 167.313L103.298 167.829L100.719 168.216L100.203 168.603L99.5585 169.893L99.4295 170.796L99.3005 171.054L99.0426 171.312L98.6557 171.699L96.8503 172.989L96.5923 173.247L96.3344 173.505L95.8186 174.795L95.5606 175.827L95.4317 176.085V176.214L95.1738 176.601L89.8863 181.245L89.4995 181.89L89.2415 182.922L89.1126 183.18L88.9836 183.309L87.8229 184.212L86.7913 185.502L86.6623 185.631L86.4044 185.76L86.0175 185.889H85.6306L84.9858 185.76L84.4699 185.502L83.8251 184.986L82.9224 184.599H82.6645L82.2776 183.954L81.6328 182.019L83.9541 182.406L84.8568 182.277H85.1147L85.2437 182.148L85.5016 181.89L85.6306 181.632L85.7596 181.374V180.987L84.4699 172.473L83.1803 157.251L83.3093 152.865L83.4382 152.22L83.8251 151.317L82.5355 150.93ZM32.6273 97.782L33.0142 98.169L32.4984 98.556L32.3694 99.201L31.7246 99.975L31.5956 100.491L31.7246 101.394L32.3694 102.813L32.4984 103.587V104.103L32.2404 105.006L31.8536 105.651L31.5956 106.167L30.6929 106.296L30.177 105.909L29.7902 105.393L28.1137 104.49L28.5005 102.942L30.0481 100.233L30.5639 98.943L31.5956 98.169L32.6273 97.782L38.6885 91.719L38.5596 90.3L38.1727 89.397L37.5279 88.881L36.6251 88.365L37.141 87.849L35.5934 87.204L34.6907 86.43L34.1749 85.398L33.659 83.85L33.1432 83.076L33.0142 82.818L32.2404 83.592L32.3694 84.108L32.7563 84.753L32.4984 85.527L32.1115 85.785L30.0481 86.43L29.9191 86.688V86.946V87.204L29.5322 87.333L29.0164 87.462L27.9847 87.333L24.8896 88.365L24.2448 86.559L22.4393 86.688L20.247 87.204L18.4415 86.43V89.139L18.8284 90.429L19.4732 91.461L20.5049 92.106L22.9552 93.009L23.9869 93.912L24.2448 94.944L24.5027 97.395L24.8896 98.556L25.6634 99.201H26.1792L26.953 98.814L28.2426 98.556L29.4033 97.911L30.6929 95.589L31.8536 95.073L32.8852 95.46L34.4328 96.363L35.5934 96.75L36.1093 95.718L36.4962 95.073L37.141 94.557L37.7858 94.041L38.4306 93.654L38.8175 93.138V92.88L38.6885 92.622V91.848L32.6273 97.782Z" fill="#0B0B14"/>
<path d="M32.6273 97.782L33.0142 98.169L32.4984 98.556L32.3694 99.201L31.7246 99.975L31.5956 100.491L31.7246 101.394L32.3694 102.813L32.4984 103.587V104.103L32.2404 105.006L31.8536 105.651L31.5956 106.167L30.6929 106.296L30.177 105.909L29.7902 105.393L28.1137 104.49L28.5005 102.942L30.0481 100.233L30.5639 98.943L31.5956 98.169L32.6273 97.782ZM32.6273 97.782L38.6885 91.719L38.5596 90.3L38.1727 89.397L37.5279 88.881L36.6251 88.365L37.141 87.849L35.5934 87.204L34.6907 86.43L34.1749 85.398L33.659 83.85L33.1432 83.076L33.0142 82.818L32.2404 83.592L32.3694 84.108L32.7563 84.753L32.4984 85.527L32.1115 85.785L30.0481 86.43L29.9191 86.688V86.946V87.204L29.5322 87.333L29.0164 87.462L27.9847 87.333L24.8896 88.365L24.2448 86.559L22.4393 86.688L20.247 87.204L18.4415 86.43V89.139L18.8284 90.429L19.4732 91.461L20.5049 92.106L22.9552 93.009L23.9869 93.912L24.2448 94.944L24.5027 97.395L24.8896 98.556L25.6634 99.201H26.1792L26.953 98.814L28.2426 98.556L29.4033 97.911L30.6929 95.589L31.8536 95.073L32.8852 95.46L34.4328 96.363L35.5934 96.75L36.1093 95.718L36.4962 95.073L37.141 94.557L37.7858 94.041L38.4306 93.654L38.8175 93.138V92.88L38.6885 92.622V91.848L32.6273 97.782ZM82.5355 150.93L81.3749 150.672L70.671 150.027L70.4131 148.866L69.8973 142.674L70.5421 142.932L71.4448 143.19L72.3475 143.061L72.9923 142.674V141.9L72.4765 141.513L71.8317 141.126L71.4448 140.868L72.2186 132.225L70.2841 117.39L69.6393 116.1L68.6076 114.681L67.7049 113.004L66.4153 109.779L63.7071 104.877L62.8044 101.91L61.6437 100.749L59.3224 99.072L59.1934 98.943L59.8383 98.298L60.0962 97.395V96.621L60.2251 96.363L60.3541 96.105L68.4787 86.946L69.2525 86.301L70.929 85.14L71.3158 84.882L71.4448 84.495L72.2186 81.27V80.625V80.367L72.3475 79.335L73.1213 79.593L74.6689 80.109L75.9585 80.238L77.8929 79.98L78.9246 80.238L81.3749 82.044L82.6645 82.56L87.1781 83.85L89.6284 85.011L91.047 85.398L92.3366 85.14L97.1082 81.786H98.2688L98.3978 82.173V83.85L98.6557 84.495L99.3005 85.011H99.9454H100.719L101.493 85.14L103.169 86.172L103.943 87.591L104.072 91.074L104.33 91.848L104.588 92.751L105.491 94.17L105.62 94.815L105.491 95.46L105.233 96.234L105.104 96.879V98.943L105.362 99.588L105.878 100.62H106.264L106.651 100.104L107.554 99.846L108.586 99.975L111.552 100.749L112.97 100.362L114.905 98.298L116.323 98.04L118.774 99.975L119.934 100.362L123.287 99.588L124.19 99.975L124.706 100.878L124.964 102.426L124.835 104.232L124.061 104.877L123.158 105.264L122.127 106.554V108.231L123.287 109.263L124.706 110.295L125.222 111.843L124.835 114.681L124.706 118.938L124.19 121.26L124.061 122.679L123.416 124.098L122.127 124.485L120.579 124.872L119.419 125.646L116.323 131.709L115.808 132.612L115.679 133.386L115.808 134.289L116.195 134.934H115.679H115.421H115.163L115.034 135.192L114.905 135.321L115.163 136.611L115.292 136.869L115.679 137.127L115.808 137.643L116.066 137.772L116.71 138.159L116.839 138.288L116.968 138.417L117.097 138.675V139.062L116.066 143.319L115.937 143.577L115.679 143.835L114.776 144.48L114.389 144.867L113.873 145.512L113.228 146.157L113.099 146.286L112.97 146.673L113.099 147.189L113.228 147.576L113.486 147.834H113.615L113.873 147.963L114.131 148.092L114.389 148.221V148.479L114.518 148.737V149.124L114.389 150.414V150.93V151.317L114.002 152.22L113.615 153.252L113.099 154.026L112.197 154.929L111.681 155.187L111.294 155.316L111.036 154.929H110.778H110.52L110.133 155.316L109.617 156.219L109.36 156.606L108.973 157.638L108.586 160.476V161.121V161.637V162.282L108.07 164.475L107.941 164.862L107.683 165.378L107.425 165.765L106.393 166.797L105.878 167.055L105.104 167.313L103.298 167.829L100.719 168.216L100.203 168.603L99.5585 169.893L99.4295 170.796L99.3005 171.054L99.0426 171.312L98.6557 171.699L96.8503 172.989L96.5923 173.247L96.3344 173.505L95.8186 174.795L95.5606 175.827L95.4317 176.085V176.214L95.1738 176.601L89.8863 181.245L89.4995 181.89L89.2415 182.922L89.1126 183.18L88.9836 183.309L87.8229 184.212L86.7913 185.502L86.6623 185.631L86.4044 185.76L86.0175 185.889H85.6306L84.9858 185.76L84.4699 185.502L83.8251 184.986L82.9224 184.599H82.6645L82.2776 183.954L81.6328 182.019L83.9541 182.406L84.8568 182.277H85.1147L85.2437 182.148L85.5016 181.89L85.6306 181.632L85.7596 181.374V180.987L84.4699 172.473L83.1803 157.251L83.3093 152.865L83.4382 152.22L83.8251 151.317L82.5355 150.93Z" stroke="white"/>
<path d="M358.772 444.534L358.256 441.438L357.74 440.406L358.127 439.761L357.611 438.729L356.708 437.697L356.192 436.665V434.214L355.805 433.182L354.387 431.247L353.742 427.893L351.679 424.281H351.163L350.26 424.926L349.357 424.152L348.455 422.604L348.197 421.056L348.326 417.831L348.197 416.412L347.681 414.735L347.165 413.961L345.617 412.155L345.102 411.381L344.328 409.575L342.909 407.769L341.104 403.125L337.622 398.868L337.106 397.32L337.235 396.417L338.009 394.998L338.138 394.353L337.88 393.45L336.59 391.773L336.074 390.999L335.945 390.225V388.677L335.558 387.903L335.043 387.516L333.495 386.226L332.85 385.71L327.305 378.744L326.789 377.454L326.918 376.035L327.563 374.358L325.628 370.101L324.726 368.94L322.146 367.005L321.889 366.36L322.146 365.715L322.017 365.199L320.857 364.683L319.18 365.586L318.407 365.715L317.633 365.457L316.472 364.425L316.085 364.167H314.796L313.635 363.909L312.861 363.522L312.603 364.038L311.958 365.07L311.829 365.199L310.153 365.973L309.895 366.36V366.747L310.024 366.876L310.153 367.005L310.798 367.392L310.927 367.521L311.056 367.65L311.314 367.908L311.443 368.166L311.572 368.424V368.553V368.811L311.443 369.327L311.314 369.585L311.185 369.843L311.056 369.972L310.798 370.23L310.669 370.488L310.54 370.617V370.875L310.927 371.907V372.036V372.165L310.798 372.294L310.411 372.81L310.282 373.068L310.024 373.584V373.713V373.842V373.971L310.153 374.229L310.282 374.358L310.54 374.487L311.185 374.616L311.443 374.745L311.701 374.874L311.958 375.261L312.216 375.648L312.345 376.035L312.474 376.551V376.809V377.325V377.583L312.345 377.841L311.572 378.873L311.443 379.131L311.314 379.26V379.518L311.443 379.776V380.034L311.185 380.163L310.54 379.905L300.094 373.713L299.836 373.455L299.449 372.939L298.804 372.294L298.546 371.907L294.291 370.359L293.388 369.714L292.485 369.198H291.454L288.358 369.843L277.268 374.1H277.01L276.623 373.971L265.016 369.198L262.437 367.134L251.991 354.492L250.96 353.976L247.091 352.299L243.867 351.267L243.48 353.46L239.353 364.425L238.708 366.36V366.747V367.134L238.966 367.779L239.224 368.295V368.553V368.811L238.708 369.327L238.45 369.585L238.192 370.101L237.805 371.133L237.548 371.778L237.419 372.552L237.548 372.939V373.326L237.676 373.713L237.805 374.229V374.616L237.419 375.519L237.29 375.906L237.419 376.809L237.676 377.454V377.712V378.099L237.419 378.357L236.516 379.518L236.258 380.163L236.129 382.098L234.581 383.13L232.776 383.904L232.26 384.291L230.713 386.226L230.455 386.871L230.197 387.387L230.326 387.645L230.455 388.419V388.677L230.326 389.193L228.907 393.063L228.778 393.966V394.224V394.482L228.907 394.998V395.385V395.901L228.778 396.159L228.649 396.417L227.489 397.449L227.36 397.836V398.094L227.617 398.481L227.746 398.997L227.875 399.126L228.133 399.255L228.649 399.384L229.81 399.9L230.197 400.158H230.455L230.97 400.287L231.228 400.416L231.357 400.545L231.486 400.932L231.615 401.577L231.486 403.125L231.228 403.641L230.97 404.028H230.713L229.939 403.899L229.165 404.286L228.004 406.221L230.713 407.898L232.131 408.93L233.034 409.833V410.091L233.292 410.478L233.163 410.736L232.518 410.865L233.034 411.768L233.808 412.671L239.869 417.444L241.158 418.863L242.577 422.088L243.48 423.507L245.156 424.41H246.446L250.057 423.894L251.217 423.378L253.539 424.539L255.602 425.829L257.408 427.377L258.826 429.054L259.987 430.989L260.761 431.763L262.05 432.021L263.727 432.15L265.403 432.666L268.369 434.085L280.879 441.825L289.648 445.179L292.743 447.114L294.807 449.565L296.096 452.403L298.546 460.401L299.191 461.82L300.223 463.239L302.802 465.432L303.705 466.851L304.737 464.4L306.026 462.336L306.284 461.562L306.155 460.917L305.768 459.885V458.982L306.026 458.724L306.542 459.24L307.058 460.014L307.316 460.272L309.895 460.788L312.087 458.982L315.827 454.338L317.117 453.564H318.149L321.115 453.822L322.662 453.435L325.628 451.887L327.563 451.758L333.882 454.983L337.493 455.886L340.072 453.822L340.201 452.661L340.072 451.5L339.814 450.468L339.556 449.436L339.943 447.372V446.34L337.106 441.954L336.461 440.019L336.848 439.116L338.525 440.277L340.201 442.857L342.522 447.63L343.038 449.049L343.296 449.565L343.812 449.178L346.262 447.372L347.552 446.727L348.842 446.34L350.26 446.598L348.455 448.662L345.746 449.823L343.683 451.113L344.07 453.822L344.844 454.467L345.875 455.241L346.778 456.015L347.165 457.047L347.036 458.466L347.165 459.24L347.681 459.627L350.647 460.917L352.195 461.175L355.548 461.304L355.805 461.046L356.579 460.014L356.966 459.756H359.803L360.19 458.595L359.932 455.37L360.577 454.725L361.093 453.951L360.964 452.145L360.319 448.662L358.772 444.534Z" fill="#0B0B14" stroke="white"/>
</svg>
